<?xml version="1.0" encoding="UTF-8" standalone="no"?>
<!-- Uploaded to: SVG Repo, www.svgrepo.com, Generator: SVG Repo Mixer Tools -->

<svg
   version="1.1"
   id="Layer_1"
   viewBox="0 0 511.99999 511.99999"
   xml:space="preserve"
   sodipodi:docname="ClipDock.svg"
   width="512"
   height="512"
   inkscape:version="1.4 (86a8ad7, 2024-10-11)"
   inkscape:export-filename="ClipDock.png"
   inkscape:export-xdpi="96"
   inkscape:export-ydpi="96"
   xmlns:inkscape="http://www.inkscape.org/namespaces/inkscape"
   xmlns:sodipodi="http://sodipodi.sourceforge.net/DTD/sodipodi-0.dtd"
   xmlns="http://www.w3.org/2000/svg"
   xmlns:svg="http://www.w3.org/2000/svg"><defs
   id="defs14" /><sodipodi:namedview
   id="namedview14"
   pagecolor="#ffffff"
   bordercolor="#000000"
   borderopacity="0.25"
   inkscape:showpageshadow="2"
   inkscape:pageopacity="0.0"
   inkscape:pagecheckerboard="0"
   inkscape:deskcolor="#d1d1d1"
   inkscape:zoom="0.53378066"
   inkscape:cx="-8.4304291"
   inkscape:cy="362.50845"
   inkscape:window-width="1920"
   inkscape:window-height="991"
   inkscape:window-x="-9"
   inkscape:window-y="-9"
   inkscape:window-maximized="1"
   inkscape:current-layer="Layer_1" />














<rect
   style="fill:#3aaa64;fill-opacity:1;stroke-width:2.00757"
   id="rect1-9"
   width="511.99997"
   height="511.99997"
   x="1.5258789e-05"
   y="1.5258789e-05" /><g
   id="g14"><rect
     x="-261.96967"
     y="-466.98071"
     transform="rotate(156.2161)"
     style="fill:#ecedef;stroke-width:0.703145"
     width="262.36996"
     height="262.36996"
     id="rect1" /><polygon
     style="fill:#d9dcdf"
     points="219.238,473.423 434.955,378.34 470.863,281.697 386.673,90.696 264.999,45.487 84.054,125.244 42.926,235.936 133.577,441.596 "
     id="polygon1"
     transform="matrix(0.70312384,0,0,0.70312384,75.999247,75.999939)" /><rect
     x="-461.59052"
     y="-287.6687"
     transform="rotate(-159.61697)"
     style="fill:#d8ed8c;stroke-width:0.703135"
     width="262.36285"
     height="262.36285"
     id="rect2" /><polygon
     style="fill:#ecedef"
     points="186.454,325.979 216.437,272.011 306.382,182.065 330.368,206.051 240.422,295.997 "
     id="polygon2"
     transform="matrix(0.70312384,0,0,0.70312384,75.999247,75.999939)" /><polygon
     style="fill:#d9dcdf"
     points="240.422,295.997 330.368,206.051 319.351,195.036 190.849,323.538 "
     id="polygon3"
     transform="matrix(0.70312384,0,0,0.70312384,75.999247,75.999939)" /><polygon
     style="fill:#509fe8"
     points="480.277,92.121 390.331,230.036 282.397,122.102 420.314,32.156 "
     id="polygon4"
     transform="matrix(0.70312384,0,0,0.70312384,75.999247,75.999939)" /><g
     id="g6"
     transform="matrix(0.70312384,0,0,0.70312384,75.999247,75.999939)">
	<polygon
   style="fill:#4d8ccf"
   points="480.277,92.121 420.314,32.156 387.617,53.48 458.954,124.816 "
   id="polygon5" />
	<polygon
   style="fill:#4d8ccf"
   points="316.401,99.925 282.397,122.102 390.331,230.036 412.508,196.032 "
   id="polygon6" />
</g><g
     id="g7"
     transform="matrix(0.70312384,0,0,0.70312384,75.999247,75.999939)">
	<path
   style="fill:#509fe8"
   d="M 474.28,98.116 414.316,38.152 c -6.623,-6.623 -6.623,-17.362 0,-23.985 v 0 c 6.623,-6.623 17.362,-6.623 23.985,0 l 59.964,59.964 c 6.623,6.623 6.623,17.362 0,23.985 v 0 c -6.623,6.624 -17.36,6.624 -23.985,0 z"
   id="path6" />
	<path
   style="fill:#509fe8"
   d="M 390.331,266.015 246.419,122.102 258.412,110.109 c 6.623,-6.623 17.362,-6.623 23.985,0 l 119.927,119.927 c 6.623,6.623 6.623,17.362 0,23.985 z"
   id="path7" />
</g><path
     d="m 423.28477,296.98543 c -1.24453,-2.82444 -4.54499,-4.10483 -7.36944,-2.8603 -2.82586,1.24523 -4.10625,4.54499 -2.86031,7.37084 l 7.62186,17.29052 -48.71804,21.4734 26.61253,-71.62441 3.97124,9.00842 c 1.29305,2.93344 4.91203,4.1857 7.74562,2.6782 2.54952,-1.35632 3.64921,-4.5471 2.48484,-7.18803 l -8.61327,-19.53911 24.95246,-67.15747 c 1.07578,-2.89406 -0.39867,-6.11155 -3.29273,-7.18733 l -24.58894,-9.13639 11.06154,-16.96005 c 1.8239,0.62086 3.72093,0.93445 5.61655,0.93445 4.49578,0 8.97327,-1.73461 12.38623,-5.14827 6.82944,-6.82945 6.82944,-17.94091 0,-24.77035 L 388.13279,82.008132 c -6.82944,-6.828739 -17.9402,-6.828035 -24.77035,0 -4.85296,4.852961 -6.29998,11.851856 -4.20819,17.999268 l -17.62591,11.49537 -14.18482,-32.179868 c -1.22765,-2.782964 -4.58015,-4.087962 -7.36944,-2.860308 L 241.8535,110.89738 179.89142,87.874998 c -2.85679,-1.060311 -6.12702,0.442264 -7.18733,3.292728 l -22.30872,60.042554 -70.488864,31.07034 c -2.782964,1.22695 -4.089368,4.58156 -2.860308,7.37085 l 32.050492,72.71215 -27.767764,74.73151 c -1.061014,2.85609 0.442265,6.12773 3.292729,7.18734 L 111.867,354.40534 c 2.97492,1.10601 6.3471,-0.56742 7.28718,-3.59015 0.86976,-2.79492 -0.6525,-5.87179 -3.39258,-6.88991 l -22.005664,-8.17593 87.481964,-235.44734 113.05599,42.00743 -13.88529,9.05553 -1.89703,-1.89703 c -6.82944,-6.82874 -17.94091,-6.82803 -24.77035,0 l -8.43256,8.43186 c -2.15227,2.15297 -2.15227,5.75296 0,7.90593 l 38.20915,38.20915 -59.29021,59.29022 c -0.36774,0.36773 -0.68203,0.78398 -0.93375,1.2382 l -21.08106,37.94619 c -1.13976,2.05101 -0.85289,4.66522 0.70312,6.42092 1.71773,1.93852 4.63148,2.43984 6.89765,1.18055 l 37.94618,-21.08106 c 0.45422,-0.25242 0.87047,-0.56742 1.23821,-0.93375 l 25.7955,-25.7948 60.88349,22.6216 c 2.97492,1.10602 6.3471,-0.56742 7.28718,-3.59015 0.86976,-2.79491 -0.6518,-5.87178 -3.39257,-6.88991 l -56.08116,-20.83707 24.79918,-24.79918 38.20915,38.20916 c 2.15156,2.15155 5.75366,2.15226 7.90522,-7.1e-4 l 8.43257,-8.43186 c 6.82944,-6.82944 6.82944,-17.94091 0,-24.77035 l -1.89703,-1.89632 34.03049,-52.18023 21.71598,8.06905 -87.48267,235.44524 -189.58961,-70.44247 c -2.89476,-1.07718 -6.11155,0.39868 -7.18733,3.29273 -1.07578,2.89406 0.39867,6.11156 3.29273,7.18734 l 21.34965,7.93334 25.7941,58.51889 c 1.22695,2.78296 4.58085,4.08866 7.36944,2.86031 l 60.3899,-26.61887 79.9269,29.69644 c 2.85679,1.06172 6.12632,-0.43805 7.18733,-3.29273 l 28.79363,-77.49409 63.77052,-28.10878 c 2.78296,-1.22695 4.08937,-4.58156 2.86031,-7.37085 z M 144.96726,165.8219 114.68442,247.3238 89.530162,190.25756 Z M 371.26837,89.914057 c 2.46937,-2.469371 6.48983,-2.470778 8.9592,0 l 42.16212,42.161413 c 2.47008,2.46937 2.47008,6.48913 0,8.95991 -2.30132,2.30203 -5.93858,2.49468 -8.46069,0.44789 -0.17789,-0.14485 -42.96227,-42.929228 -43.10782,-43.107821 -2.04749,-2.522105 -1.85554,-6.159365 0.44719,-8.461392 z m -39.23009,27.778313 -26.09363,17.01771 -49.04992,-18.22568 62.47396,-27.538545 z m -62.61388,134.14478 -27.77832,27.77902 -20.15856,11.19935 11.19936,-20.15926 58.73686,-58.73615 8.9592,8.9592 z m 85.50618,-1.18125 -4.4803,4.48031 -93.28274,-93.28344 4.4796,-4.47961 c 2.47008,-2.47007 6.48984,-2.47007 8.95921,0 l 47.94742,47.94743 c 2.2732,2.27249 6.11225,2.12062 8.20194,-0.32063 1.87382,-2.18812 1.73812,-5.54976 -0.29742,-7.5853 l -37.97221,-37.9722 77.19456,-50.34437 37.52291,37.5229 -50.34507,77.19527 -8.51202,-8.51202 c -2.1832,-2.1825 -5.72272,-2.1825 -7.90522,0 -2.1832,2.1839 -2.1832,5.72273 0,7.90592 l 18.48794,18.48794 c 2.47148,2.46867 2.47148,6.48773 0.001,8.9578 z m -183.25024,125.97378 63.902,23.74308 -44.74328,19.72192 z"
     id="path8"
     style="stroke-width:0.703124" /><path
     d="m 266.89245,208.45722 c 2.97491,1.10601 6.3471,-0.56742 7.28717,-3.59015 0.86977,-2.79492 -0.6525,-5.87179 -3.39257,-6.88991 l -71.10199,-26.41707 c -2.89406,-1.07648 -6.11155,0.39938 -7.18733,3.29273 -1.07578,2.89406 0.39867,6.11156 3.29273,7.18733 z"
     id="path9"
     style="stroke-width:0.703124" /><path
     d="m 175.88502,219.56658 c -1.07578,2.89405 0.39867,6.11155 3.29273,7.18733 l 39.12532,14.53708 c 2.97492,1.10602 6.3471,-0.56742 7.28718,-3.59015 0.86976,-2.79491 -0.6525,-5.87178 -3.39257,-6.88991 l -39.12533,-14.53708 c -2.89546,-1.07578 -6.11225,0.39937 -7.18733,3.29273 z"
     id="path10"
     style="stroke-width:0.703124" /><path
     d="m 159.27091,264.28103 c -1.07578,2.89406 0.39867,6.11156 3.29273,7.18734 l 38.74493,14.39505 c 2.97492,1.10601 6.3471,-0.56742 7.28718,-3.59015 0.86976,-2.79492 -0.6525,-5.87179 -3.39258,-6.88991 l -38.74493,-14.39505 c -2.89476,-1.07649 -6.11226,0.39937 -7.18733,3.29272 z"
     id="path11"
     style="stroke-width:0.703124" /><path
     d="m 142.65679,308.99479 c -1.07578,2.89406 0.39867,6.11155 3.29273,7.18733 l 156.4999,58.14905 c 2.97492,1.10601 6.3471,-0.56743 7.28718,-3.59015 0.86976,-2.79492 -0.6525,-5.87179 -3.39258,-6.88992 L 149.84413,305.70206 c -2.89477,-1.07648 -6.11156,0.39867 -7.18734,3.29273 z"
     id="path12"
     style="stroke-width:0.703124" /><path
     d="m 279.93821,315.07892 c 2.97491,1.10601 6.3471,-0.56742 7.28717,-3.59015 0.86977,-2.79492 -0.65179,-5.87179 -3.39257,-6.88991 l -16.7681,-6.23038 c -2.89476,-1.07719 -6.11155,0.39867 -7.18733,3.29273 -1.07578,2.89406 0.39867,6.11155 3.29273,7.18733 z"
     id="path13"
     style="stroke-width:0.703124" /><path
     d="m 319.06353,329.616 c 2.97492,1.10602 6.3471,-0.56742 7.28718,-3.59015 0.86976,-2.79491 -0.6518,-5.87178 -3.39257,-6.88991 l -22.35723,-8.3074 c -2.89547,-1.07649 -6.11155,0.39867 -7.18733,3.29272 -1.07578,2.89406 0.39867,6.11156 3.29272,7.18734 z"
     id="path14"
     style="stroke-width:0.703124" /></g>
</svg>
