<?xml version="1.0" encoding="UTF-8" standalone="no"?>
<!-- Uploaded to: SVG Repo, www.svgrepo.com, Generator: SVG Repo Mixer Tools -->

<svg
   height="512"
   width="512"
   version="1.1"
   id="Layer_1"
   viewBox="0 0 251.38688 251.38688"
   xml:space="preserve"
   sodipodi:docname="Donfig.svg"
   inkscape:version="1.4 (86a8ad7, 2024-10-11)"
   inkscape:export-filename="Donfig.png"
   inkscape:export-xdpi="96"
   inkscape:export-ydpi="96"
   xmlns:inkscape="http://www.inkscape.org/namespaces/inkscape"
   xmlns:sodipodi="http://sodipodi.sourceforge.net/DTD/sodipodi-0.dtd"
   xmlns="http://www.w3.org/2000/svg"
   xmlns:svg="http://www.w3.org/2000/svg"><defs
   id="defs4" /><sodipodi:namedview
   id="namedview4"
   pagecolor="#ffffff"
   bordercolor="#000000"
   borderopacity="0.25"
   inkscape:showpageshadow="2"
   inkscape:pageopacity="0.0"
   inkscape:pagecheckerboard="0"
   inkscape:deskcolor="#d1d1d1"
   inkscape:zoom="1.3664839"
   inkscape:cx="291.62438"
   inkscape:cy="355.29143"
   inkscape:window-width="1920"
   inkscape:window-height="991"
   inkscape:window-x="-9"
   inkscape:window-y="-9"
   inkscape:window-maximized="1"
   inkscape:current-layer="Layer_1" />





<rect
   style="fill:#3aaa64;fill-opacity:1;stroke-width:0.985697"
   id="rect1-9"
   width="251.38687"
   height="251.38687"
   x="4.3310547e-06"
   y="4.3310547e-06" /><path
   style="fill:#ffffff;stroke-width:0.449999"
   d="m 182.10012,112.10752 c -1.4256,-5.90533 -3.72374,-11.54922 -6.89443,-16.698102 -0.84375,-1.367097 -0.93105,-3.054593 -0.31995,-4.567489 l 8.23273,-18.705552 -3.89834,-3.92714 -18.61825,8.203479 c -1.48365,0.669148 -3.19995,0.523799 -4.56749,-0.319949 -5.20739,-3.229192 -10.88007,-5.585386 -16.84346,-7.010982 -1.57095,-0.377999 -2.85074,-1.483646 -3.40379,-2.996543 l -7.33093,-18.908951 h -5.52734 l -7.30168,18.821652 c -0.58185,1.483646 -1.89089,2.647343 -3.43259,2.996542 -6.07993,1.425596 -11.81067,3.78179 -17.105357,7.010982 -1.396346,0.843748 -3.054592,0.931048 -4.567038,0.319949 l -18.385153,-8.115729 -3.92714,3.92714 8.058129,18.327103 c 0.669149,1.483646 0.523799,3.199942 -0.319949,4.567489 -3.316491,5.323481 -5.701935,11.141971 -7.156331,17.250701 -0.377999,1.57095 -1.483647,2.85075 -2.996543,3.4326 l -18.647502,7.24363 v 5.52733 l 18.647052,7.24363 c 1.483646,0.58185 2.647343,1.8909 2.996543,3.4326 1.454396,6.10918 3.86909,11.92722 7.156331,17.2507 0.872548,1.39635 0.959848,3.08384 0.319949,4.56749 l -8.058129,18.2983 3.89834,3.89834 18.385603,-8.11618 c 1.454396,-0.66914 3.170692,-0.52379 4.567038,0.31995 5.294687,3.22919 11.025427,5.58539 17.105357,7.01099 1.57095,0.37799 2.87999,1.48364 3.43259,2.99654 l 7.30168,18.82165 h 5.52734 l 7.33093,-18.90895 c 0.58185,-1.48365 1.83284,-2.6181 3.40379,-2.99654 5.93459,-1.4256 11.60727,-3.78179 16.84346,-7.01099 1.39634,-0.84374 3.08384,-0.95984 4.56749,-0.31995 l 18.64705,8.20348 3.89834,-3.89834 -8.26198,-18.73435 c -0.66915,-1.4544 -0.5238,-3.17069 0.31995,-4.50899 3.17069,-5.14888 5.46928,-10.79277 6.89443,-16.72735 0.378,-1.57095 1.48365,-2.85075 2.99654,-3.4326 l 19.08355,-7.41823 v -5.52733 l -19.1128,-7.41823 c -1.45439,-0.55305 -2.55959,-1.8621 -2.93804,-3.4038 z"
   id="path1" /><path
   style="fill:#000000;stroke-width:0.449999"
   d="M 210.90005,114.98752 191.002,107.27859 c -1.4544,-5.14889 -3.49109,-10.123627 -6.07994,-14.777965 l 8.58193,-19.46155 c 0.78525,-1.832846 0.40725,-3.98564 -1.01835,-5.469286 l -8.66877,-8.669228 c -1.4256,-1.425597 -3.57839,-1.832845 -5.46929,-1.018348 l -19.4035,8.552679 c -4.68359,-2.676144 -9.68713,-4.770888 -14.92376,-6.225285 l -7.65088,-19.723449 c -0.7272,-1.890895 -2.5308,-3.141892 -4.59629,-3.141892 h -12.18912 c -2.00744,0 -3.81104,1.250997 -4.59629,3.141892 l -7.62163,19.5781 c -5.32348,1.454396 -10.443571,3.549141 -15.243709,6.254534 L 73.0096,57.882213 c -1.832846,-0.785248 -3.98564,-0.407249 -5.469286,1.018348 l -8.668778,8.668778 c -1.425596,1.425596 -1.832845,3.578391 -1.018347,5.469286 l 8.407328,19.083551 c -2.734643,4.828938 -4.916237,10.007074 -6.399884,15.359814 l -19.4035,7.50553 c -1.890895,0.7272 -3.141892,2.53079 -3.141892,4.59629 v 12.21836 c 0,2.00745 1.250997,3.81104 3.141892,4.59629 l 19.4035,7.53433 c 1.483647,5.38199 3.607191,10.53088 6.399884,15.35981 l -8.407328,19.05476 c -0.785248,1.83284 -0.407249,4.04369 1.018347,5.46928 l 8.669228,8.66923 c 1.425596,1.4256 3.578391,1.83284 5.469286,1.01835 l 19.170851,-8.43613 c 4.800138,2.67659 9.919779,4.80014 15.243709,6.25453 l 7.62163,19.5781 c 0.7272,1.8909 2.5308,3.14189 4.59629,3.14189 h 12.24717 c 2.00744,0 3.81104,-1.25099 4.59629,-3.14189 l 7.65088,-19.72345 c 5.20738,-1.45439 10.21092,-3.54914 14.92376,-6.22528 l 19.4035,8.55268 c 1.83285,0.84374 4.04369,0.40725 5.46929,-1.01835 l 8.66922,-8.66923 c 1.4256,-1.42559 1.83285,-3.57839 1.01835,-5.46928 l -8.66923,-19.4908 c 2.6181,-4.65434 4.65434,-9.59983 6.07994,-14.77797 l 19.89805,-7.70893 c 1.89089,-0.7272 3.14189,-2.53079 3.14189,-4.59629 v -12.24716 c -0.0585,-1.9791 -1.3095,-3.78269 -3.17159,-4.53914 z m -6.69059,13.44011 -19.08355,7.41823 c -1.48364,0.58185 -2.61809,1.8909 -2.99654,3.4326 -1.4256,5.90533 -3.72374,11.54922 -6.89443,16.72735 -0.84375,1.3671 -0.93105,3.05459 -0.31995,4.50899 l 8.23273,18.70555 -3.92714,3.92714 -18.61825,-8.17468 c -1.48365,-0.66914 -3.1707,-0.52379 -4.56749,0.31995 -5.20739,3.2292 -10.88007,5.58539 -16.84346,7.01099 -1.57095,0.37799 -2.85074,1.48364 -3.40379,2.99654 l -7.33093,18.90895 h -5.52734 l -7.30168,-18.82165 c -0.58185,-1.48365 -1.89089,-2.64735 -3.43259,-2.99654 -6.07993,-1.4256 -11.81067,-3.7818 -17.105357,-7.01099 -1.396346,-0.84374 -3.054592,-0.93104 -4.567038,-0.31995 l -18.385603,8.11618 -3.92714,-3.92714 8.058129,-18.3271 c 0.669149,-1.48365 0.523799,-3.19994 -0.319949,-4.56704 -3.316491,-5.32348 -5.701935,-11.14197 -7.156331,-17.2507 -0.377999,-1.57095 -1.483647,-2.85075 -2.996543,-3.4326 l -18.647502,-7.24408 v -5.52733 l 18.647052,-7.24363 c 1.483646,-0.58185 2.647343,-1.8909 2.996543,-3.4326 1.425596,-6.10918 3.86909,-11.89797 7.156331,-17.250701 0.872548,-1.396347 0.959848,-3.083842 0.319949,-4.567039 l -8.057679,-18.298753 3.92714,-3.92714 18.385603,8.116179 c 1.454396,0.669149 3.170692,0.523799 4.567038,-0.319949 5.294687,-3.229192 11.025427,-5.585386 17.105357,-7.010982 1.57095,-0.377999 2.87999,-1.483646 3.43259,-2.996542 l 7.30168,-18.821652 h 5.52734 l 7.33093,18.908952 c 0.58185,1.483646 1.83284,2.618093 3.40379,2.996542 5.99264,1.425596 11.63652,3.78179 16.84346,7.010982 1.39634,0.843748 3.08384,0.959848 4.56749,0.319949 l 18.64705,-8.203479 3.89834,3.89834 -8.23273,18.705552 c -0.66915,1.454397 -0.5238,3.170692 0.31995,4.567489 3.17069,5.148882 5.46928,10.792772 6.89443,16.698112 0.378,1.57094 1.48365,2.85074 2.99654,3.43259 l 19.08355,7.41823 z"
   id="path2" /><path
   style="fill:#000000;stroke-width:0.449999"
   d="m 125.48937,170.31848 c -24.58164,0 -44.62549,-20.0434 -44.62549,-44.62549 0,-24.58209 20.0146,-44.625486 44.62549,-44.625486 24.61088,0 44.59623,20.043396 44.59623,44.625486 0,24.58209 -20.01415,44.62549 -44.59623,44.62549 z"
   id="path3" /><text
   xml:space="preserve"
   style="font-style:normal;font-variant:normal;font-weight:normal;font-stretch:normal;font-size:78.7453px;font-family:Consolas;-inkscape-font-specification:Consolas;text-align:start;writing-mode:lr-tb;direction:ltr;text-anchor:start;fill:#ffffff;stroke-width:6.56206"
   x="108.26375"
   y="150.81996"
   id="text4"><tspan
     sodipodi:role="line"
     id="tspan4"
     style="font-style:normal;font-variant:normal;font-weight:normal;font-stretch:normal;font-family:Consolas;-inkscape-font-specification:Consolas;fill:#ffffff;stroke-width:6.56206"
     x="108.26375"
     y="150.81996">D</tspan></text></svg>
