<?xml version="1.0" encoding="UTF-8" standalone="no"?>
<!-- Uploaded to: SVG Repo, www.svgrepo.com, Generator: SVG Repo Mixer Tools -->

<svg
   version="1.1"
   id="Layer_1"
   viewBox="0 0 512 512"
   xml:space="preserve"
   sodipodi:docname="Explorer4Delphi.svg"
   inkscape:version="1.4 (86a8ad7, 2024-10-11)"
   inkscape:export-filename="Explorer4Delphi.png"
   inkscape:export-xdpi="96"
   inkscape:export-ydpi="96"
   xmlns:inkscape="http://www.inkscape.org/namespaces/inkscape"
   xmlns:sodipodi="http://sodipodi.sourceforge.net/DTD/sodipodi-0.dtd"
   xmlns="http://www.w3.org/2000/svg"
   xmlns:svg="http://www.w3.org/2000/svg"><defs
   id="defs18" /><sodipodi:namedview
   id="namedview18"
   pagecolor="#ffffff"
   bordercolor="#000000"
   borderopacity="0.25"
   inkscape:showpageshadow="2"
   inkscape:pageopacity="0.0"
   inkscape:pagecheckerboard="0"
   inkscape:deskcolor="#d1d1d1"
   inkscape:zoom="0.75488281"
   inkscape:cx="411.32212"
   inkscape:cy="183.47219"
   inkscape:window-width="1920"
   inkscape:window-height="991"
   inkscape:window-x="-9"
   inkscape:window-y="-9"
   inkscape:window-maximized="1"
   inkscape:current-layer="Layer_1" />



















<rect
   style="fill:#3aaa64;fill-opacity:1;stroke-width:2.00757"
   id="rect1-9"
   width="511.99997"
   height="511.99997"
   x="1.5258789e-05"
   y="1.5258789e-05" /><g
   id="g18"
   transform="matrix(0.703125,0,0,0.703125,76,76)"><path
     style="fill:#ffffff"
     d="M 486.881,465.503 H 25.119 c -9.446,0 -17.102,-7.656 -17.102,-17.102 V 63.599 c 0,-9.446 7.656,-17.102 17.102,-17.102 h 461.762 c 9.446,0 17.102,7.656 17.102,17.102 v 384.802 c 0,9.446 -7.656,17.102 -17.102,17.102 z"
     id="path1" /><path
     style="fill:#ffffff"
     d="M 503.983,89.253 H 50.772 V 46.497 h 436.109 c 9.446,0 17.102,7.656 17.102,17.102 z"
     id="path2" /><g
     id="g4">
	<path
   style="fill:#ffffff"
   d="M 461.228,260.276 H 50.772 c -4.722,0 -8.551,-3.829 -8.551,-8.551 V 132.008 c 0,-4.722 3.829,-8.551 8.551,-8.551 h 410.455 c 4.722,0 8.551,3.829 8.551,8.551 v 119.716 c 10e-4,4.723 -3.828,8.552 -8.55,8.552 z"
   id="path3" />
	<path
   style="fill:#ffffff"
   d="M 461.228,431.299 H 50.772 c -4.722,0 -8.551,-3.829 -8.551,-8.551 V 303.031 c 0,-4.722 3.829,-8.551 8.551,-8.551 h 410.455 c 4.722,0 8.551,3.829 8.551,8.551 v 119.716 c 10e-4,4.723 -3.828,8.552 -8.55,8.552 z"
   id="path4" />
</g><path
     style="fill:#00c3ff"
     d="M 170.489,260.276 H 50.772 c -4.722,0 -8.551,-3.829 -8.551,-8.551 V 132.008 c 0,-4.722 3.829,-8.551 8.551,-8.551 h 119.716 v 136.819 z"
     id="path5" /><path
     style="fill:#7df5a5"
     d="M 170.489,431.299 H 50.772 c -4.722,0 -8.551,-3.829 -8.551,-8.551 V 303.031 c 0,-4.722 3.829,-8.551 8.551,-8.551 h 119.716 v 136.819 z"
     id="path6" /><g
     id="5151e0c8492e5103c096af88a51fc328-0"
     transform="matrix(0.16799873,0,0,0.16799873,61.96948,328.916)"
     style="fill:#000000;stroke:none;stroke-width:9.98793;stroke-dasharray:none;stroke-opacity:1">

<path
   display="inline"
   d="m 397.27,173.265 -16.749,11.557 c -12.268,-13.347 -26.762,-24.597 -42.89,-33.177 L 477.685,35.25 371.655,0.5 277.707,133.742 c -3.327,-0.307 -6.683,-0.52 -10.07,-0.621 L 349.44,0.724 248.618,1.445 206.172,143.418 c -2.634,1.003 -5.239,2.071 -7.808,3.204 L 222.25,17.52 139.06,50.534 149.52,180.203 c -1.274,1.281 -2.522,2.587 -3.752,3.915 l -23.504,-112.22 -58.243,56.154 51.788,102.092 c -0.96,2.248 -1.869,4.521 -2.728,6.819 l -52.903,-76.2 -24.712,57.857 68.385,57.68 c -0.256,2.493 -0.455,5.008 -0.595,7.533 l -64.452,-48.002 -4.489,56.684 71.07,28.122 c 0.339,1.94 0.711,3.864 1.119,5.776 l -66.333,-18.301 14.526,48.353 61.555,0.361 c 0.592,1.356 1.205,2.706 1.833,4.045 l -56.875,6.852 28.678,35.504 42.883,-17.294 c 7.014,9.804 15.1,18.792 24.099,26.77 l 5.203,-10.673 c 0,0 8.735,-12.997 50.222,-14.447 19.401,-0.686 41.332,2.414 59.181,5.906 L 325.125,511.5 c 0,0 12.809,-3.655 27.422,-12.809 14.613,-9.133 25.574,-29.227 25.574,-29.227 0,0 -18.268,-54.844 -38.38,-76.76 -20.115,-21.923 -43.86,-32.92 -54.844,-45.708 -8.691,-10.139 -21.984,-19.13 -27.115,-22.413 l -2.706,-4.85 164.113,-36.817 z m -247.667,66.686 c -27.422,68.562 29.226,135.283 29.226,135.283 l -23.771,8.19 c 0,0 -1.382,-1.774 -3.568,-5.036 l 4.579,-1.852 -12.019,-10.373 c -13.563,-24.435 -32.611,-71.72 -13.682,-121.638 27.483,-72.173 107.88,-90.47 107.88,-90.47 l 9.154,2.749 c 0,0.001 -76.742,30.54 -97.799,83.147 z"
   id="path1-0-9"
   style="fill:#000000;stroke:none;stroke-width:9.98793;stroke-dasharray:none;stroke-opacity:1"
   sodipodi:nodetypes="ccccccccccccccccccccccccccccccccccccccccccccccccccccccccc">

</path>

</g><rect
     x="375.716"
     y="46.497002"
     style="fill:#ff5050"
     width="42.756001"
     height="42.756001"
     id="rect6" /><rect
     x="418.47198"
     y="46.497002"
     style="fill:#fff082"
     width="42.756001"
     height="42.756001"
     id="rect7" /><path
     style="fill:#a0ffb4"
     d="M 503.983,89.253 H 461.227 V 46.497 h 25.653 c 9.446,0 17.102,7.656 17.102,17.102 v 25.654 z"
     id="path7" /><path
     d="M 486.881,38.48 H 25.119 C 11.268,38.48 0,49.748 0,63.599 v 384.802 c 0,13.851 11.268,25.119 25.119,25.119 H 486.881 C 500.732,473.52 512,462.252 512,448.401 V 63.599 C 512,49.748 500.732,38.48 486.881,38.48 Z m 9.086,25.119 V 81.236 H 469.245 V 54.514 h 17.637 c 5.009,0 9.085,4.075 9.085,9.085 z M 426.489,81.236 V 54.514 h 26.722 v 26.722 z m -42.756,0 V 54.514 h 26.722 v 26.722 z m -324.944,0 V 54.514 h 308.91 V 81.236 Z M 25.119,54.514 H 42.756 V 81.236 H 16.033 V 63.599 c 0,-5.01 4.076,-9.085 9.086,-9.085 z M 486.881,457.486 H 25.119 c -5.01,0 -9.086,-4.076 -9.086,-9.086 V 97.269 h 479.933 v 351.132 c 10e-4,5.01 -4.075,9.085 -9.085,9.085 z"
     id="path8" /><path
     d="M 461.228,115.441 H 50.772 c -9.136,0 -16.568,7.432 -16.568,16.568 v 119.716 c 0,9.136 7.432,16.568 16.568,16.568 h 410.455 c 9.136,0 16.568,-7.432 16.568,-16.568 V 132.008 c 0,-9.135 -7.432,-16.567 -16.567,-16.567 z M 50.238,251.724 V 132.008 c 0,-0.295 0.239,-0.534 0.534,-0.534 H 162.471 V 252.259 H 50.772 c -0.295,0 -0.534,-0.24 -0.534,-0.535 z m 411.524,0 c 0,0.295 -0.239,0.534 -0.534,0.534 H 178.505 V 131.474 h 282.722 c 0.295,0 0.534,0.239 0.534,0.534 v 119.716 z"
     id="path9" /><path
     d="M 461.228,286.463 H 50.772 c -9.136,0 -16.568,7.432 -16.568,16.568 v 119.716 c 0,9.136 7.432,16.568 16.568,16.568 h 410.455 c 9.136,0 16.568,-7.432 16.568,-16.568 V 303.031 c 0,-9.136 -7.432,-16.568 -16.567,-16.568 z M 50.238,422.747 V 303.031 c 0,-0.295 0.239,-0.534 0.534,-0.534 H 162.471 V 423.282 H 50.772 c -0.295,0 -0.534,-0.24 -0.534,-0.535 z m 411.524,0 c 0,0.295 -0.239,0.534 -0.534,0.534 H 178.505 V 302.497 h 282.722 c 0.295,0 0.534,0.239 0.534,0.534 v 119.716 z"
     id="path10" /><path
     d="m 213.244,174.23 h 85.511 c 4.427,0 8.017,-3.589 8.017,-8.017 0,-4.428 -3.589,-8.017 -8.017,-8.017 h -85.511 c -4.427,0 -8.017,3.589 -8.017,8.017 0,4.428 3.59,8.017 8.017,8.017 z"
     id="path13" /><path
     d="M 367.165,192.401 H 213.244 c -4.427,0 -8.017,3.589 -8.017,8.017 0,4.428 3.589,8.017 8.017,8.017 h 153.921 c 4.427,0 8.017,-3.589 8.017,-8.017 0,-4.428 -3.59,-8.017 -8.017,-8.017 z"
     id="path14" /><path
     d="m 401.37,158.196 h -68.41 c -4.427,0 -8.017,3.589 -8.017,8.017 0,4.428 3.589,8.017 8.017,8.017 h 68.409 c 4.427,0 8.017,-3.589 8.017,-8.017 0,-4.428 -3.589,-8.017 -8.016,-8.017 z"
     id="path15" /><path
     d="m 213.244,345.253 h 68.409 c 4.427,0 8.017,-3.589 8.017,-8.017 0,-4.427 -3.589,-8.017 -8.017,-8.017 h -68.409 c -4.427,0 -8.017,3.589 -8.017,8.017 0.001,4.427 3.59,8.017 8.017,8.017 z"
     id="path16" /><path
     d="M 332.96,363.424 H 213.244 c -4.427,0 -8.017,3.589 -8.017,8.017 0,4.427 3.589,8.017 8.017,8.017 H 332.96 c 4.427,0 8.017,-3.589 8.017,-8.017 0,-4.428 -3.589,-8.017 -8.017,-8.017 z"
     id="path17" /><path
     d="m 384.267,329.219 h -68.409 c -4.427,0 -8.017,3.589 -8.017,8.017 0,4.427 3.589,8.017 8.017,8.017 h 68.409 c 4.427,0 8.017,-3.589 8.017,-8.017 0,-4.427 -3.589,-8.017 -8.017,-8.017 z"
     id="path18" /><g
     id="5151e0c8492e5103c096af88a51fc328"
     transform="matrix(0.16799873,0,0,0.16799873,66.651739,152.10881)"
     style="fill:#000000;stroke:none;stroke-width:9.98793;stroke-dasharray:none;stroke-opacity:1">

<path
   display="inline"
   d="m 397.27,173.265 -16.749,11.557 c -12.268,-13.347 -26.762,-24.597 -42.89,-33.177 L 477.685,35.25 371.655,0.5 277.707,133.742 c -3.327,-0.307 -6.683,-0.52 -10.07,-0.621 L 349.44,0.724 248.618,1.445 206.172,143.418 c -2.634,1.003 -5.239,2.071 -7.808,3.204 L 222.25,17.52 139.06,50.534 149.52,180.203 c -1.274,1.281 -2.522,2.587 -3.752,3.915 l -23.504,-112.22 -58.243,56.154 51.788,102.092 c -0.96,2.248 -1.869,4.521 -2.728,6.819 l -52.903,-76.2 -24.712,57.857 68.385,57.68 c -0.256,2.493 -0.455,5.008 -0.595,7.533 l -64.452,-48.002 -4.489,56.684 71.07,28.122 c 0.339,1.94 0.711,3.864 1.119,5.776 l -66.333,-18.301 14.526,48.353 61.555,0.361 c 0.592,1.356 1.205,2.706 1.833,4.045 l -56.875,6.852 28.678,35.504 42.883,-17.294 c 7.014,9.804 15.1,18.792 24.099,26.77 l 5.203,-10.673 c 0,0 8.735,-12.997 50.222,-14.447 19.401,-0.686 41.332,2.414 59.181,5.906 L 325.125,511.5 c 0,0 12.809,-3.655 27.422,-12.809 14.613,-9.133 25.574,-29.227 25.574,-29.227 0,0 -18.268,-54.844 -38.38,-76.76 -20.115,-21.923 -43.86,-32.92 -54.844,-45.708 -8.691,-10.139 -21.984,-19.13 -27.115,-22.413 l -2.706,-4.85 164.113,-36.817 z m -247.667,66.686 c -27.422,68.562 29.226,135.283 29.226,135.283 l -23.771,8.19 c 0,0 -1.382,-1.774 -3.568,-5.036 l 4.579,-1.852 -12.019,-10.373 c -13.563,-24.435 -32.611,-71.72 -13.682,-121.638 27.483,-72.173 107.88,-90.47 107.88,-90.47 l 9.154,2.749 c 0,0.001 -76.742,30.54 -97.799,83.147 z"
   id="path1-0"
   style="fill:#000000;stroke:none;stroke-width:9.98793;stroke-dasharray:none;stroke-opacity:1"
   sodipodi:nodetypes="ccccccccccccccccccccccccccccccccccccccccccccccccccccccccc">

</path>

</g></g></svg>
