<?xml version="1.0" encoding="UTF-8" standalone="no"?>
<!-- Uploaded to: SVG Repo, www.svgrepo.com, Generator: SVG Repo Mixer Tools -->

<svg
   version="1.1"
   id="Layer_1"
   viewBox="0 0 512.00001 512.00001"
   xml:space="preserve"
   sodipodi:docname="Guara.svg"
   width="512"
   height="512"
   inkscape:version="1.4 (86a8ad7, 2024-10-11)"
   inkscape:export-filename="Guara.png"
   inkscape:export-xdpi="96"
   inkscape:export-ydpi="96"
   xmlns:inkscape="http://www.inkscape.org/namespaces/inkscape"
   xmlns:sodipodi="http://sodipodi.sourceforge.net/DTD/sodipodi-0.dtd"
   xmlns="http://www.w3.org/2000/svg"
   xmlns:svg="http://www.w3.org/2000/svg"><defs
   id="defs14">
	
	
	
	
	
	
	
	
	
	
	
	
	
	
	
	
	
	
	
	
	
	
</defs><sodipodi:namedview
   id="namedview14"
   pagecolor="#ffffff"
   bordercolor="#000000"
   borderopacity="0.25"
   inkscape:showpageshadow="2"
   inkscape:pageopacity="0.0"
   inkscape:pagecheckerboard="0"
   inkscape:deskcolor="#d1d1d1"
   inkscape:zoom="0.70710678"
   inkscape:cx="321.73359"
   inkscape:cy="276.47875"
   inkscape:window-width="1920"
   inkscape:window-height="991"
   inkscape:window-x="-9"
   inkscape:window-y="-9"
   inkscape:window-maximized="1"
   inkscape:current-layer="Layer_1" />
<rect
   style="fill:#3aaa64;fill-opacity:1;stroke-width:2.00757"
   id="rect1-9"
   width="511.99997"
   height="511.99997"
   x="1.5258789e-05"
   y="1.5258789e-05" /><g
   id="g15"
   transform="matrix(0.73136988,0,0,0.73136988,75.999999,75.999999)"><g
     id="XMLID_951_">
		<path
   style="fill:#ffffff"
   d="m 304.694,199.146 c 0,0 26.838,-106.217 124.484,-102.516 v 102.516 z"
   id="path1" />
	</g><g
     id="XMLID_949_"
     style="fill:#ff6600">
		<path
   style="fill:#ff6600"
   d="m 304.694,448.113 v 0 H 290.049 L 304.694,411.5 V 199.146 H 429.178 V 323.63 c 0,68.75 -55.733,124.483 -124.484,124.483 z"
   id="path2" />
	</g><g
     id="XMLID_952_"
     style="fill:#d45500">
		<path
   style="fill:#d45500"
   d="m 355.951,437.105 c -15.631,7.072 -32.984,11.009 -51.257,11.009 v 0 h -14.645 l 14.645,-36.613 V 199.146 h 51.258 l -10e-4,237.959"
   id="path3" />
	</g><g
     id="XMLID_948_"
     style="fill:#d45500">
		<path
   style="fill:#d45500"
   d="m 282.726,411.501 c 0,-28.309 -22.949,-51.258 -51.258,-51.258 l -29.162,-95.194 h -58.709 l -29.29,95.194 c -28.309,0 -51.258,22.949 -51.258,51.258 0,28.205 22.785,51.075 50.951,51.242 l -0.088,29.306 H 231.77 l -0.067,-29.302 c 28.2,-0.129 51.023,-23.017 51.023,-51.246 z"
   id="path4" />
	</g><g
     id="XMLID_938_"
     style="fill:#ff6600">
		<rect
   x="150.92"
   y="382.20999"
   style="fill:#ff6600"
   width="15.516"
   height="109.839"
   id="rect5" />
	</g><g
     id="XMLID_945_"
     style="fill:#ff6600">
		<rect
   x="179.974"
   y="382.20999"
   style="fill:#ff6600"
   width="15.516"
   height="109.839"
   id="rect6" />
	</g><g
     id="XMLID_1018_"
     style="fill:#d45500">
		<polygon
   style="fill:#d45500"
   points="92.339,206.468 91.371,23.404 128.952,74.662 224.145,74.662 253.931,23.404 253.436,206.468 172.887,301.662 "
   id="polygon6" />
	</g><g
     id="XMLID_1095_"
     style="fill:#4d4d4d"
     transform="matrix(1.4780032,0,0,1.6196197,-83.878218,-186.91572)">
		<polygon
   style="fill:#4d4d4d"
   points="172.887,301.662 209.5,257.726 136.275,257.726 "
   id="polygon7" />
	</g><g
     id="XMLID_187_"
     style="fill:#d45500">
		<rect
   x="92.338997"
   y="155.21001"
   style="fill:#d45500"
   width="58.581001"
   height="29.290001"
   id="rect7" />
	</g><g
     id="XMLID_1094_"
     style="fill:#d45500">
		<rect
   x="194.855"
   y="155.21001"
   style="fill:#d45500"
   width="58.581001"
   height="29.290001"
   id="rect8" />
	</g><g
     id="XMLID_1090_"
     style="fill:#ffffff">
		<polygon
   style="fill:#ffffff"
   points="238.791,45.371 216.823,81.984 238.791,81.984 "
   id="polygon8" />
	</g><g
     id="XMLID_1093_"
     style="fill:#ffffff">
		<polyline
   style="fill:#ffffff"
   points="128.952,81.984 106.984,81.984 106.984,45.371   "
   id="polyline8" />
	</g><g
     id="XMLID_1089_"
     style="fill:#d45500">
		<polygon
   style="fill:#d45500"
   points="136.275,74.662 165.565,118.597 180.21,118.597 209.5,74.662 "
   id="polygon9" />
	</g><g
     id="XMLID_363_"
     style="fill:#000000">
		<rect
   x="158.242"
   y="250.226"
   style="fill:#000000"
   width="29.291"
   height="15"
   id="rect9" />
	</g><g
     id="XMLID_293_">
		<rect
   x="136.097"
   y="162.533"
   style="fill:#ffffff"
   width="15"
   height="21.968"
   id="rect11" />
	</g><g
     id="XMLID_331_">
		<rect
   x="194.67799"
   y="162.533"
   style="fill:#ffffff"
   width="15"
   height="21.968"
   id="rect12" />
	</g><rect
     style="fill:#333333;stroke:none;stroke-width:0.39448"
     id="rect15"
     width="118.75"
     height="33.5"
     x="110.91161"
     y="458.58578" /><g
     id="g13"
     style="fill:#000000">
		<polygon
   style="fill:#000000"
   points="158.42,382.211 143.42,382.211 143.42,477.227 128.952,477.227 128.952,492.227 158.42,492.227 "
   id="polygon12" />
		<polygon
   style="fill:#000000"
   points="216.823,477.227 202.355,477.227 202.355,382.211 187.355,382.211 187.355,492.227 216.823,492.227 "
   id="polygon13" />
		<path
   style="fill:#000000"
   d="m 429.178,89.129 c -72.776,0 -131.984,59.207 -131.984,131.984 V 411.5 c 0,9.592 -4.665,18.112 -11.843,23.42 3.133,-7.18 4.875,-15.099 4.875,-23.42 0,-30.503 -23.365,-55.651 -53.136,-58.491 l -26.087,-84.782 49.933,-59.012 V 0.001 L 212.963,67.162 H 132.811 L 84.839,0 v 209.216 l 49.933,59.011 -26.087,84.782 c -29.771,2.84 -53.136,27.988 -53.136,58.491 0,29.858 22.388,54.587 51.258,58.282 v 7.444 H 77.694 v 15 h 44.113 v -36.968 h -7.5 c -24.128,0 -43.758,-19.63 -43.758,-43.758 0,-24.128 19.63,-43.758 43.758,-43.758 h 5.539 l 26.436,-85.914 26.606,31.444 26.606,-31.444 26.435,85.914 h 5.539 c 24.128,0 43.758,19.63 43.758,43.758 0,24.128 -19.63,43.758 -43.758,43.758 h -7.5 v 36.968 h 44.113 v -15 h -29.113 v -7.444 c 11.893,-1.522 22.68,-6.62 31.261,-14.169 h 34.465 c 72.776,0 131.984,-59.208 131.984,-131.983 V 89.129 Z M 99.839,203.721 V 46.808 l 25.252,35.354 h 95.591 l 25.253,-35.354 v 156.914 l -73.048,86.33 z M 421.678,323.63 c 0,64.505 -52.479,116.983 -116.984,116.983 h -3.497 c 6.841,-7.773 10.997,-17.968 10.997,-29.113 V 221.113 c 0,-61.985 48.46,-112.866 109.484,-116.746 z"
   id="path13" />
	</g><g
     id="XMLID_365_"
     style="fill:#000000">
		<rect
   x="114.307"
   y="155.033"
   style="fill:#000000"
   width="36.791"
   height="15"
   id="rect13" />
	</g><g
     id="XMLID_366_"
     style="fill:#000000">
		<rect
   x="194.67799"
   y="155.033"
   style="fill:#000000"
   width="36.791"
   height="15"
   id="rect14" />
	</g></g>
</svg>
