<?xml version="1.0" encoding="UTF-8" standalone="no"?>
<!-- Uploaded to: SVG Repo, www.svgrepo.com, Generator: SVG Repo Mixer Tools -->

<svg
   version="1.1"
   id="Layer_1"
   viewBox="0 0 512 512"
   xml:space="preserve"
   sodipodi:docname="Themes4Delphi.svg"
   inkscape:version="1.4 (86a8ad7, 2024-10-11)"
   inkscape:export-filename="Themes4Delphi.png"
   inkscape:export-xdpi="96"
   inkscape:export-ydpi="96"
   xmlns:inkscape="http://www.inkscape.org/namespaces/inkscape"
   xmlns:sodipodi="http://sodipodi.sourceforge.net/DTD/sodipodi-0.dtd"
   xmlns="http://www.w3.org/2000/svg"
   xmlns:svg="http://www.w3.org/2000/svg"><defs
   id="defs23" /><sodipodi:namedview
   id="namedview23"
   pagecolor="#ffffff"
   bordercolor="#000000"
   borderopacity="0.25"
   inkscape:showpageshadow="2"
   inkscape:pageopacity="0.0"
   inkscape:pagecheckerboard="0"
   inkscape:deskcolor="#d1d1d1"
   inkscape:zoom="1.1648337"
   inkscape:cx="290.59943"
   inkscape:cy="197.02384"
   inkscape:window-width="1920"
   inkscape:window-height="991"
   inkscape:window-x="-9"
   inkscape:window-y="-9"
   inkscape:window-maximized="1"
   inkscape:current-layer="Layer_1" />

























<rect
   style="fill:#3aaa64;fill-opacity:1;stroke-width:2.00757"
   id="rect1-9"
   width="511.99997"
   height="511.99997"
   x="1.5258789e-05"
   y="1.5258789e-05" /><path
   style="fill:#ffffff;stroke-width:0.703125"
   d="M 418.3382,403.3068 H 93.661797 c -6.641719,0 -12.024844,-5.38313 -12.024844,-12.02485 v -270.5639 c 0,-6.64172 5.383125,-12.02485 12.024844,-12.02485 H 418.3382 c 6.64172,0 12.02485,5.38313 12.02485,12.02485 v 270.5639 c 0,6.64102 -5.38383,12.02485 -12.02485,12.02485 z"
   id="path1" /><g
   id="5151e0c8492e5103c096af88a51fc328"
   transform="matrix(0.42238478,0,0,0.42238478,92.424997,159.11561)"
   style="fill:#ff0000;stroke:#000000;stroke-width:9.98793;stroke-dasharray:none;stroke-opacity:1">

<path
   display="inline"
   d="m 397.27,173.265 -16.749,11.557 c -12.268,-13.347 -26.762,-24.597 -42.89,-33.177 L 477.685,35.25 371.655,0.5 277.707,133.742 c -3.327,-0.307 -6.683,-0.52 -10.07,-0.621 L 349.44,0.724 248.618,1.445 206.172,143.418 c -2.634,1.003 -5.239,2.071 -7.808,3.204 L 222.25,17.52 139.06,50.534 149.52,180.203 c -1.274,1.281 -2.522,2.587 -3.752,3.915 l -23.504,-112.22 -58.243,56.154 51.788,102.092 c -0.96,2.248 -1.869,4.521 -2.728,6.819 l -52.903,-76.2 -24.712,57.857 68.385,57.68 c -0.256,2.493 -0.455,5.008 -0.595,7.533 l -64.452,-48.002 -4.489,56.684 71.07,28.122 c 0.339,1.94 0.711,3.864 1.119,5.776 l -66.333,-18.301 14.526,48.353 61.555,0.361 c 0.592,1.356 1.205,2.706 1.833,4.045 l -56.875,6.852 28.678,35.504 42.883,-17.294 c 7.014,9.804 15.1,18.792 24.099,26.77 l 5.203,-10.673 c 0,0 8.735,-12.997 50.222,-14.447 19.401,-0.686 41.332,2.414 59.181,5.906 L 325.125,511.5 c 0,0 12.809,-3.655 27.422,-12.809 14.613,-9.133 25.574,-29.227 25.574,-29.227 0,0 -18.268,-54.844 -38.38,-76.76 -20.115,-21.923 -43.86,-32.92 -54.844,-45.708 -8.691,-10.139 -21.984,-19.13 -27.115,-22.413 l -2.706,-4.85 164.113,-36.817 z m -247.667,66.686 c -27.422,68.562 29.226,135.283 29.226,135.283 l -23.771,8.19 c 0,0 -1.382,-1.774 -3.568,-5.036 l 4.579,-1.852 -12.019,-10.373 c -13.563,-24.435 -32.611,-71.72 -13.682,-121.638 27.483,-72.173 107.88,-90.47 107.88,-90.47 l 9.154,2.749 c 0,0.001 -76.742,30.54 -97.799,83.147 z"
   id="path1-0"
   style="fill:#ff0000;stroke:#000000;stroke-width:9.98793;stroke-dasharray:none;stroke-opacity:1"
   sodipodi:nodetypes="ccccccccccccccccccccccccccccccccccccccccccccccccccccccccc">

</path>

</g><path
   style="fill:#5b5d6e;stroke-width:0.703125"
   d="M 418.3382,403.3068 H 256 V 138.75602 h 174.36305 v 252.52593 c 0,6.64102 -5.38383,12.02485 -12.02485,12.02485 z"
   id="path4" /><path
   style="fill:#ffffff;stroke-width:0.703125"
   d="M 430.36305,138.75602 H 111.69906 V 108.6932 H 418.3382 c 6.64172,0 12.02485,5.38313 12.02485,12.02485 z"
   id="path5" /><rect
   x="340.17532"
   y="108.69321"
   style="fill:#ff5050;stroke-width:0.703125"
   width="30.062813"
   height="30.062813"
   id="rect5" /><rect
   x="370.23813"
   y="108.69321"
   style="fill:#fff082;stroke-width:0.703125"
   width="30.062813"
   height="30.062813"
   id="rect6" /><path
   style="fill:#a0ffb4;stroke-width:0.703125"
   d="M 430.36305,138.75602 H 400.30023 V 108.6932 h 18.03727 c 6.64172,0 12.02484,5.38313 12.02484,12.02485 v 18.03797 z"
   id="path6" /><path
   d="M 418.3382,103.05625 H 93.661797 C 83.922813,103.05625 76,110.97906 76,120.71805 v 270.5639 c 0,9.73899 7.922813,17.6618 17.661797,17.6618 H 418.3382 c 9.73899,0 17.6618,-7.92281 17.6618,-17.6618 v -270.5639 c 0,-9.73899 -7.92281,-17.6618 -17.6618,-17.6618 z m 6.3886,17.6618 v 12.40101 h -18.78891 v -18.7889 h 12.40102 c 3.52195,0 6.38789,2.86523 6.38789,6.38789 z m -48.85172,12.40101 v -18.7889 h 18.7889 v 18.7889 z m -30.06281,0 v -18.7889 h 18.7889 v 18.7889 z m -11.27391,-18.7889 v 18.7889 h -72.90141 v -18.7889 z m -84.17531,18.7889 H 117.33602 v -18.7889 H 250.36305 Z M 93.661797,114.33016 h 12.401013 v 18.7889 H 87.273203 v -12.40101 c 0,-3.52266 2.865938,-6.38789 6.388594,-6.38789 z m 0,283.33968 c -3.522656,0 -6.388594,-2.86593 -6.388594,-6.38859 V 144.39227 H 250.36305 v 253.27757 z m 324.676403,0 H 261.63695 V 144.39227 H 424.7268 v 246.88968 c 0,3.52266 -2.86594,6.38789 -6.3886,6.38789 z"
   id="path7"
   sodipodi:nodetypes="sssssssssscccssccccccccccccccccccccscccsssscccsscccss"
   style="stroke-width:0.703125" /><path
   d="m 286.06281,192.49234 h 12.02485 c 3.11273,0 5.63695,-2.52351 5.63695,-5.63695 0,-3.11273 -2.52352,-5.63695 -5.63695,-5.63695 h -12.02485 c -3.11273,0 -5.63695,2.52351 -5.63695,5.63695 0,3.11344 2.52351,5.63695 5.63695,5.63695 z"
   id="path8"
   style="stroke-width:0.703125" /><path
   d="m 286.06281,240.59312 h 12.02485 c 3.11273,0 5.63695,-2.52351 5.63695,-5.63695 0,-3.11344 -2.52352,-5.63695 -5.63695,-5.63695 h -12.02485 c -3.11273,0 -5.63695,2.52351 -5.63695,5.63695 0,3.11344 2.52351,5.63695 5.63695,5.63695 z"
   id="path9"
   style="stroke-width:0.703125" /><path
   d="m 298.46312,210.90578 c 0,3.11274 2.52352,5.63695 5.63696,5.63695 h 12.02484 c 3.11274,0 5.63695,-2.52351 5.63695,-5.63695 0,-3.11344 -2.52351,-5.63695 -5.63695,-5.63695 h -12.02484 c -3.11274,7e-4 -5.63696,2.52422 -5.63696,5.63695 z"
   id="path10"
   style="stroke-width:0.703125" /><path
   d="m 400.30094,181.21914 h -78.16289 c -3.11274,0 -5.63696,2.52352 -5.63696,5.63695 0,3.11274 2.52352,5.63696 5.63696,5.63696 h 78.16289 c 3.11273,0 5.63695,-2.52352 5.63695,-5.63696 -7e-4,-3.11343 -2.52422,-5.63695 -5.63695,-5.63695 z"
   id="path11"
   style="stroke-width:0.703125" /><path
   d="m 400.30094,229.31922 h -78.16289 c -3.11274,0 -5.63696,2.52351 -5.63696,5.63695 0,3.11344 2.52352,5.63695 5.63696,5.63695 h 78.16289 c 3.11273,0 5.63695,-2.52351 5.63695,-5.63695 0,-3.11344 -2.52422,-5.63695 -5.63695,-5.63695 z"
   id="path12"
   style="stroke-width:0.703125" /><path
   d="m 400.30094,205.26953 h -60.12492 c -3.11274,0 -5.63696,2.52352 -5.63696,5.63695 0,3.11344 2.52352,5.63696 5.63696,5.63696 h 60.12492 c 3.11273,0 5.63695,-2.52352 5.63695,-5.63696 0,-3.11343 -2.52422,-5.63695 -5.63695,-5.63695 z"
   id="path13"
   style="stroke-width:0.703125" /><path
   d="m 321.76188,259.00656 c 0,-3.11273 -2.52352,-5.63695 -5.63696,-5.63695 h -12.02484 c -3.11274,0 -5.63695,2.52351 -5.63695,5.63695 0,3.11274 2.52351,5.63696 5.63695,5.63696 h 12.02484 c 3.11344,-7.1e-4 5.63696,-2.52422 5.63696,-5.63696 z"
   id="path14"
   style="stroke-width:0.703125" /><path
   d="m 400.30094,253.36961 h -60.12492 c -3.11274,0 -5.63696,2.52351 -5.63696,5.63695 0,3.11274 2.52352,5.63696 5.63696,5.63696 h 60.12492 c 3.11273,0 5.63695,-2.52352 5.63695,-5.63696 -7e-4,-3.11344 -2.52422,-5.63695 -5.63695,-5.63695 z"
   id="path15"
   style="stroke-width:0.703125" /><path
   d="m 286.06281,288.6932 h 12.02485 c 3.11273,0 5.63695,-2.52351 5.63695,-5.63695 0,-3.11273 -2.52352,-5.63695 -5.63695,-5.63695 h -12.02485 c -3.11273,0 -5.63695,2.52351 -5.63695,5.63695 0,3.11344 2.52351,5.63695 5.63695,5.63695 z"
   id="path16"
   style="stroke-width:0.703125" /><path
   d="m 303.72461,331.15633 c 0,-3.11274 -2.52352,-5.63696 -5.63695,-5.63696 h -12.02485 c -3.11273,0 -5.63695,2.52352 -5.63695,5.63696 0,3.11273 2.52352,5.63695 5.63695,5.63695 h 12.02485 c 3.11273,0 5.63695,-2.52351 5.63695,-5.63695 z"
   id="path17"
   style="stroke-width:0.703125" /><path
   d="m 298.46312,307.10664 c 0,3.11274 2.52352,5.63695 5.63696,5.63695 h 12.02484 c 3.11274,0 5.63695,-2.52351 5.63695,-5.63695 0,-3.11273 -2.52351,-5.63695 -5.63695,-5.63695 h -12.02484 c -3.11274,0 -5.63696,2.52351 -5.63696,5.63695 z"
   id="path18"
   style="stroke-width:0.703125" /><path
   d="m 400.30094,277.4193 h -78.16289 c -3.11274,0 -5.63696,2.52351 -5.63696,5.63695 0,3.11273 2.52352,5.63695 5.63696,5.63695 h 78.16289 c 3.11273,0 5.63695,-2.52351 5.63695,-5.63695 -7e-4,-3.11273 -2.52422,-5.63695 -5.63695,-5.63695 z"
   id="path19"
   style="stroke-width:0.703125" /><path
   d="m 400.30094,325.52008 h -78.16289 c -3.11274,0 -5.63696,2.52351 -5.63696,5.63695 0,3.11274 2.52352,5.63695 5.63696,5.63695 h 78.16289 c 3.11273,0 5.63695,-2.52351 5.63695,-5.63695 -7e-4,-3.11344 -2.52422,-5.63695 -5.63695,-5.63695 z"
   id="path20"
   style="stroke-width:0.703125" /><path
   d="m 400.30094,301.46969 h -60.12492 c -3.11274,0 -5.63696,2.52351 -5.63696,5.63695 0,3.11274 2.52352,5.63695 5.63696,5.63695 h 60.12492 c 3.11273,0 5.63695,-2.52351 5.63695,-5.63695 -7e-4,-3.11344 -2.52422,-5.63695 -5.63695,-5.63695 z"
   id="path21"
   style="stroke-width:0.703125" /><path
   d="m 316.12492,349.56977 h -12.02484 c -3.11274,0 -5.63695,2.52351 -5.63695,5.63695 0,3.11273 2.52351,5.63695 5.63695,5.63695 h 12.02484 c 3.11274,0 5.63696,-2.52351 5.63696,-5.63695 0,-3.11274 -2.52352,-5.63695 -5.63696,-5.63695 z"
   id="path22"
   style="stroke-width:0.703125" /><path
   d="m 400.30094,349.56977 h -60.12492 c -3.11274,0 -5.63696,2.52351 -5.63696,5.63695 0,3.11273 2.52352,5.63695 5.63696,5.63695 h 60.12492 c 3.11273,0 5.63695,-2.52351 5.63695,-5.63695 -7e-4,-3.11274 -2.52422,-5.63695 -5.63695,-5.63695 z"
   id="path23"
   style="stroke-width:0.703125" />
</svg>
