<?xml version="1.0" encoding="UTF-8" standalone="no"?>
<!-- Uploaded to: SVG Repo, www.svgrepo.com, Generator: SVG Repo Mixer Tools -->

<svg
   version="1.1"
   id="Layer_1"
   viewBox="0 0 512 512"
   xml:space="preserve"
   sodipodi:docname="TintTool.svg"
   inkscape:version="1.4 (86a8ad7, 2024-10-11)"
   inkscape:export-filename="TintTool.png"
   inkscape:export-xdpi="96"
   inkscape:export-ydpi="96"
   xmlns:inkscape="http://www.inkscape.org/namespaces/inkscape"
   xmlns:sodipodi="http://sodipodi.sourceforge.net/DTD/sodipodi-0.dtd"
   xmlns="http://www.w3.org/2000/svg"
   xmlns:svg="http://www.w3.org/2000/svg"><defs
   id="defs30" /><sodipodi:namedview
   id="namedview30"
   pagecolor="#ffffff"
   bordercolor="#000000"
   borderopacity="0.25"
   inkscape:showpageshadow="2"
   inkscape:pageopacity="0.0"
   inkscape:pagecheckerboard="0"
   inkscape:deskcolor="#d1d1d1"
   inkscape:zoom="0.37744141"
   inkscape:cx="-14.571798"
   inkscape:cy="433.17982"
   inkscape:window-width="1920"
   inkscape:window-height="991"
   inkscape:window-x="-9"
   inkscape:window-y="-9"
   inkscape:window-maximized="1"
   inkscape:current-layer="Layer_1" />




















<rect
   style="fill:#3aaa64;fill-opacity:1;stroke-width:2.00757"
   id="rect1-9"
   width="511.99997"
   height="511.99997"
   x="1.5258789e-05"
   y="1.5258789e-05" /><g
   id="g31"
   transform="matrix(0.703125,0,0,0.703125,75.999648,76)"><g
     id="g2">
	<rect
   x="398.51501"
   y="366.845"
   style="fill:#d4145a"
   width="95.010002"
   height="95.010002"
   id="rect1" />
	<rect
   x="303.505"
   y="366.845"
   style="fill:#d4145a"
   width="95.010002"
   height="95.010002"
   id="rect2" />
</g><rect
     x="208.495"
     y="366.845"
     style="fill:#9e005d"
     width="95.010002"
     height="95.010002"
     id="rect3" /><rect
     x="113.485"
     y="366.845"
     style="fill:#93278f"
     width="95.010002"
     height="95.010002"
     id="rect4" /><rect
     x="18.474001"
     y="366.845"
     style="fill:#662d91"
     width="95.010002"
     height="95.010002"
     id="rect5" /><rect
     x="398.51501"
     y="271.83499"
     style="fill:#0087ce"
     width="95.010002"
     height="95.010002"
     id="rect6" /><rect
     x="303.505"
     y="271.83499"
     style="fill:#008fd0"
     width="95.010002"
     height="95.010002"
     id="rect7" /><rect
     x="208.495"
     y="271.83499"
     style="fill:#0098d2"
     width="95.010002"
     height="95.010002"
     id="rect8" /><rect
     x="113.485"
     y="271.83499"
     style="fill:#00a4d4"
     width="95.010002"
     height="95.010002"
     id="rect9" /><rect
     x="18.474001"
     y="271.83499"
     style="fill:#00b4d7"
     width="95.010002"
     height="95.010002"
     id="rect10" /><rect
     x="398.51501"
     y="176.825"
     style="fill:#595e62"
     width="95.010002"
     height="95.010002"
     id="rect11" /><rect
     x="303.505"
     y="176.825"
     style="fill:#7e8488"
     width="95.010002"
     height="95.010002"
     id="rect12" /><rect
     x="208.495"
     y="176.825"
     style="fill:#afb6bb"
     width="95.010002"
     height="95.010002"
     id="rect13" /><rect
     x="113.485"
     y="176.825"
     style="fill:#e7eced"
     width="95.010002"
     height="95.010002"
     id="rect14" /><rect
     x="18.474001"
     y="176.825"
     style="fill:#f1f2f2"
     width="95.010002"
     height="95.010002"
     id="rect15" /><rect
     x="398.51501"
     y="81.814003"
     style="fill:#ffd311"
     width="95.010002"
     height="95.010002"
     id="rect16" /><rect
     x="303.505"
     y="81.814003"
     style="fill:#fdb51e"
     width="95.010002"
     height="95.010002"
     id="rect17" /><g
     id="g18">
	<polygon
   style="fill:#ed1c24"
   points="208.495,81.814 240.165,81.814 303.505,81.814 303.505,176.825 208.495,176.825 "
   id="polygon17" />
	<rect
   x="113.485"
   y="81.814003"
   style="fill:#ed1c24"
   width="95.010002"
   height="95.010002"
   id="rect18" />
</g><rect
     x="18.474001"
     y="81.814003"
     style="fill:#c1272d"
     width="95.010002"
     height="95.010002"
     id="rect19" /><g
     id="g20">
	<polygon
   style="fill:#364853"
   points="18.474,461.856 113.485,461.856 208.495,461.856 303.505,461.856 398.515,461.856 493.526,461.856 493.526,504.082 18.474,504.082 "
   id="polygon19" />
	<polygon
   style="fill:#364853"
   points="113.485,81.814 18.474,81.814 18.474,7.918 240.165,7.918 240.165,81.814 208.495,81.814 "
   id="polygon20" />
</g><path
     d="M 248.082,73.897 V 0 H 10.557 V 512 H 501.444 V 73.897 Z m 63.341,380.041 v -79.175 h 79.175 v 79.175 z m 0,-95.01 v -79.175 h 79.175 v 79.175 z M 200.577,184.742 v 79.175 h -79.175 v -79.175 z m 0,95.011 v 79.175 h -79.175 v -79.175 z m 15.835,0 h 79.175 v 79.175 h -79.175 z m 95.011,-15.835 v -79.175 h 79.175 v 79.175 z m -15.835,0 h -79.175 v -79.175 h 79.175 z M 200.577,168.907 H 121.402 V 89.732 h 79.175 z m -79.175,205.856 h 79.175 v 79.175 h -79.175 z m 95.01,0 h 79.175 v 79.175 H 216.412 Z M 390.598,89.732 v 79.175 H 311.423 V 89.732 Z m -95.01,79.175 H 216.413 V 89.732 h 79.175 z M 26.392,15.835 H 232.248 V 73.897 H 26.392 Z m 0,73.897 h 79.175 v 79.175 H 26.392 Z m 0,95.01 h 79.175 v 79.175 H 26.392 Z m 0,95.011 h 79.175 v 79.175 H 26.392 Z m 0,95.01 h 79.175 v 79.175 H 26.392 Z M 485.608,496.165 H 26.392 v -26.392 h 459.217 v 26.392 z m -79.175,-42.227 v -79.175 h 79.175 v 79.175 z m 0,-95.01 v -79.175 h 79.175 v 79.175 z m 0,-95.01 v -79.175 h 79.175 v 79.175 z m 0,-95.011 V 89.732 h 79.175 v 79.175 z"
     id="path20" /><g
     id="g30">
	<rect
   x="44.866001"
   y="36.948002"
   style="fill:#ffffff"
   width="47.505001"
   height="15.835"
   id="rect20" />
	<rect
   x="108.206"
   y="36.948002"
   style="fill:#ffffff"
   width="105.567"
   height="15.835"
   id="rect21" />
	<rect
   x="44.866001"
   y="110.845"
   style="fill:#ffffff"
   width="21.113001"
   height="15.835"
   id="rect22" />
	<rect
   x="234.88699"
   y="110.845"
   style="fill:#ffffff"
   width="21.113001"
   height="15.835"
   id="rect23" />
	<rect
   x="234.88699"
   y="205.856"
   style="fill:#ffffff"
   width="21.113001"
   height="15.835"
   id="rect24" />
	<rect
   x="329.897"
   y="205.856"
   style="fill:#ffffff"
   width="21.113001"
   height="15.835"
   id="rect25" />
	<rect
   x="139.87601"
   y="300.866"
   style="fill:#ffffff"
   width="21.113001"
   height="15.835"
   id="rect26" />
	<rect
   x="44.866001"
   y="395.87601"
   style="fill:#ffffff"
   width="21.113001"
   height="15.835"
   id="rect27" />
	<rect
   x="329.897"
   y="395.87601"
   style="fill:#ffffff"
   width="21.113001"
   height="15.835"
   id="rect28" />
	<rect
   x="424.90701"
   y="300.866"
   style="fill:#ffffff"
   width="21.113001"
   height="15.835"
   id="rect29" />
	<rect
   x="424.90701"
   y="110.845"
   style="fill:#ffffff"
   width="21.113001"
   height="15.835"
   id="rect30" />
</g></g>
</svg>
