<?xml version="1.0" encoding="UTF-8" standalone="no"?>
<!-- Uploaded to: SVG Repo, www.svgrepo.com, Generator: SVG Repo Mixer Tools -->

<svg
   height="512"
   width="512"
   version="1.1"
   id="Layer_1"
   viewBox="0 0 327.68064 327.68064"
   xml:space="preserve"
   sodipodi:docname="ZRLib.svg"
   inkscape:version="1.4 (86a8ad7, 2024-10-11)"
   inkscape:export-filename="ZRLib.png"
   inkscape:export-xdpi="96"
   inkscape:export-ydpi="96"
   xmlns:inkscape="http://www.inkscape.org/namespaces/inkscape"
   xmlns:sodipodi="http://sodipodi.sourceforge.net/DTD/sodipodi-0.dtd"
   xmlns="http://www.w3.org/2000/svg"
   xmlns:svg="http://www.w3.org/2000/svg"><defs
   id="defs8" /><sodipodi:namedview
   id="namedview8"
   pagecolor="#ffffff"
   bordercolor="#000000"
   borderopacity="0.25"
   inkscape:showpageshadow="2"
   inkscape:pageopacity="0.0"
   inkscape:pagecheckerboard="0"
   inkscape:deskcolor="#d1d1d1"
   inkscape:zoom="0.483125"
   inkscape:cx="499.87063"
   inkscape:cy="373.60931"
   inkscape:window-width="1920"
   inkscape:window-height="991"
   inkscape:window-x="-9"
   inkscape:window-y="-9"
   inkscape:window-maximized="1"
   inkscape:current-layer="Layer_1" />









<rect
   style="fill:#3aaa64;fill-opacity:1;stroke-width:1.28485"
   id="rect1-9"
   width="327.68063"
   height="327.68063"
   x="3.2275391e-06"
   y="3.2275391e-06" /><g
   id="g8"
   transform="matrix(0.44999972,0,0,0.44999972,48.639717,48.640096)"><path
     style="fill:#ff0435"
     d="M 88.377,408.382 V 45.924 C 88.377,24.9 105.44,7.836 126.479,7.836 H 423.612 V 408.381 H 88.377 Z"
     id="path1" /><path
     style="fill:#e60020"
     d="M 130.367,343.643 V 7.837 h -3.888 C 105.44,7.837 88.377,24.9 88.377,45.925 v 362.457 h 335.236 v -64.739 z"
     id="path2" /><path
     style="fill:#e0e0e3"
     d="M 423.613,446.47 H 126.474 c -21.039,0 -38.095,-17.056 -38.095,-38.095 v 0 c 0,-21.039 17.056,-38.095 38.095,-38.095 h 297.139 z"
     id="path3" /><path
     style="fill:#d2d1d3"
     d="m 113.812,436.892 v 0 c 0,-21.039 17.056,-38.095 38.095,-38.095 H 423.613 V 370.282 H 126.474 c -21.039,0 -38.095,17.056 -38.095,38.095 v 0 c 0,16.887 10.991,31.198 26.207,36.192 -0.508,-2.48 -0.774,-5.048 -0.774,-7.677 z"
     id="path4" /><polygon
     style="fill:#ff0435"
     points="297.986,413.818 297.986,504.163 333.044,483.665 368.104,504.163 368.104,413.818 "
     id="polygon4" /><path
     d="m 423.617,136.934 c 4.329,0 7.837,-3.508 7.837,-7.837 V 7.837 C 431.454,3.508 427.946,0 423.617,0 H 126.469 C 101.147,0 80.546,20.606 80.546,45.934 v 362.444 c 0,25.327 20.601,45.934 45.923,45.934 h 57.438 c 4.329,0 7.837,-3.508 7.837,-7.837 0,-4.329 -3.508,-7.837 -7.837,-7.837 h -57.438 c -16.68,0 -30.25,-13.574 -30.25,-30.26 0,-8.09 3.147,-15.688 8.867,-21.4 5.706,-5.713 13.301,-8.86 21.383,-8.86 H 415.78 v 30.26 30.26 h -39.841 v -16.984 h 5.791 c 4.329,0 7.837,-3.508 7.837,-7.837 0,-4.329 -3.508,-7.837 -7.837,-7.837 H 153.585 c -4.329,0 -7.837,3.508 -7.837,7.837 0,4.329 3.508,7.837 7.837,7.837 h 136.564 v 16.984 H 221.2 c -4.329,0 -7.837,3.508 -7.837,7.837 0,4.329 3.508,7.837 7.837,7.837 h 68.949 v 49.852 c 0,2.808 1.503,5.4 3.937,6.798 2.435,1.397 5.43,1.385 7.856,-0.032 l 31.105,-18.185 31.103,18.185 c 1.221,0.715 2.588,1.071 3.955,1.071 1.346,0 2.692,-0.346 3.9,-1.039 2.435,-1.398 3.937,-3.99 3.937,-6.798 v -49.852 h 47.678 c 4.329,0 7.837,-3.508 7.837,-7.837 v -38.097 -38.097 -205.94 c 0,-4.329 -3.508,-7.837 -7.837,-7.837 -4.329,0 -7.837,3.508 -7.837,7.837 V 362.443 H 126.471 c -11.258,0 -21.884,4.031 -30.25,11.387 V 45.934 c 0,-16.686 13.57,-30.26 30.25,-30.26 h 289.311 v 113.424 c -0.002,4.327 3.507,7.836 7.835,7.836 z m -63.351,309.521 c 0,0.007 -0.001,0.014 -0.001,0.02 0,0.006 0.001,0.014 0.001,0.02 v 44.008 l -23.267,-13.604 c -2.442,-1.427 -5.466,-1.428 -7.91,0 l -23.268,13.604 v -43.947 c 0,-0.027 0.004,-0.053 0.004,-0.08 0,-0.027 -0.004,-0.053 -0.004,-0.08 v -24.74 h 53.635 0.809 v 24.801 h 0.001 z"
     id="path5" /><path
     d="m 285.282,78.491 c 4.329,0 7.837,-3.508 7.837,-7.837 0,-4.329 -3.508,-7.837 -7.837,-7.837 h -56.457 c -4.329,0 -7.837,3.508 -7.837,7.837 0,4.329 3.508,7.837 7.837,7.837 z"
     id="path6" /><path
     d="M 317.996,110.98 H 196.11 c -4.329,0 -7.837,3.508 -7.837,7.837 0,4.329 3.508,7.837 7.837,7.837 h 121.885 c 4.329,0 7.837,-3.508 7.837,-7.837 0,-4.329 -3.507,-7.837 -7.836,-7.837 z"
     id="path7" /><path
     d="M 317.996,159.143 H 196.11 c -4.329,0 -7.837,3.508 -7.837,7.837 0,4.329 3.508,7.837 7.837,7.837 h 121.885 c 4.329,0 7.837,-3.508 7.837,-7.837 0,-4.329 -3.507,-7.837 -7.836,-7.837 z"
     id="path8" /><text
     xml:space="preserve"
     style="font-size:161.286px;font-family:Consolas;-inkscape-font-specification:Consolas;text-align:start;writing-mode:lr-tb;direction:ltr;text-anchor:start;fill:#000000;stroke-width:13.4405"
     x="165.90715"
     y="319.25549"
     id="text8"><tspan
       sodipodi:role="line"
       id="tspan8"
       style="fill:#000000;stroke-width:13.4405"
       x="165.90715"
       y="319.25549">ZR</tspan></text></g></svg>
