<?xml version="1.0" encoding="UTF-8" standalone="no"?>
<!-- Created with Inkscape (http://www.inkscape.org/) -->

<svg
   width="512"
   height="512"
   viewBox="0 0 135.46666 135.46667"
   version="1.1"
   id="svg1"
   inkscape:version="1.4.2 (ebf0e940d0, 2025-05-08)"
   sodipodi:docname="favicon.svg"
   inkscape:export-filename="favicon.png"
   inkscape:export-xdpi="96"
   inkscape:export-ydpi="96"
   xmlns:inkscape="http://www.inkscape.org/namespaces/inkscape"
   xmlns:sodipodi="http://sodipodi.sourceforge.net/DTD/sodipodi-0.dtd"
   xmlns="http://www.w3.org/2000/svg"
   xmlns:svg="http://www.w3.org/2000/svg">
  <sodipodi:namedview
     id="namedview1"
     pagecolor="#ffffff"
     bordercolor="#000000"
     borderopacity="0.25"
     inkscape:showpageshadow="2"
     inkscape:pageopacity="0.0"
     inkscape:pagecheckerboard="0"
     inkscape:deskcolor="#d1d1d1"
     inkscape:document-units="mm"
     inkscape:zoom="1.0154442"
     inkscape:cx="254.076"
     inkscape:cy="330.88967"
     inkscape:window-width="1920"
     inkscape:window-height="1015"
     inkscape:window-x="0"
     inkscape:window-y="37"
     inkscape:window-maximized="1"
     inkscape:current-layer="layer1" />
  <defs
     id="defs1" />
  <g
     inkscape:label="Layer 1"
     inkscape:groupmode="layer"
     id="layer1">
    <rect
       style="fill:#1c1c1c;fill-opacity:1;stroke-width:0.538474"
       id="rect1"
       width="135.46666"
       height="135.46666"
       x="3.5603841e-06"
       y="3.5603841e-06" />
    <g
       id="g2"
       transform="matrix(0.31235129,0,0,0.31235129,21.047123,21.046997)"
       style="fill:#ffffff">
      <path
         d="m 149.468,77.394 c -44.435,0 -73.694,25.159 -80.457,80.457 -4.127,33.746 -15.998,88.94 -20.955,111.298 -1.243,5.607 1.945,11.256 7.394,13.073 l 48.379,16.136 c 3.303,1.102 6.93,0.608 9.819,-1.336 2.889,-1.944 4.711,-5.119 4.934,-8.594 l 4.251,-66.347 c 0.293,-4.568 -2.218,-8.856 -6.345,-10.837 L 84.596,195.938 c -4.189,-2.01 -5.955,-7.035 -3.944,-11.224 l 7.592,-15.82 c 0.965,-2.012 2.69,-3.557 4.795,-4.297 2.105,-0.74 4.418,-0.613 6.429,0.353 l 32.174,15.442 c 3.892,1.868 6.367,5.802 6.367,10.119 v 41.797 c 0,0.839 0.262,1.658 0.75,2.341 l 7.43,10.401 c 0.756,1.059 1.977,1.687 3.278,1.687 1.301,0 2.521,-0.628 3.278,-1.687 l 7.43,-10.401 c 0.488,-0.683 0.75,-1.502 0.75,-2.341 V 190.51 c 0,-4.317 2.476,-8.251 6.368,-10.119 l 32.174,-15.442 c 2.011,-0.965 4.324,-1.092 6.429,-0.353 2.105,0.74 3.83,2.285 4.795,4.297 l 7.593,15.82 c 2.01,4.189 0.244,9.214 -3.944,11.224 l -31.892,15.306 c -4.127,1.981 -6.637,6.269 -6.345,10.837 l 4.251,66.347 c 0.223,3.475 2.045,6.649 4.934,8.594 2.888,1.944 6.516,2.438 9.819,1.336 l 48.379,-16.136 c 5.459,-1.821 8.639,-7.455 7.394,-13.073 -4.956,-22.359 -16.828,-77.552 -20.955,-111.298 -6.763,-55.297 -36.022,-80.456 -80.457,-80.456 z"
         id="path1"
         style="fill:#ffffff" />
      <path
         d="M 259.957,43.655 C 221.728,7.74 170.134,-6.014 121.668,2.391 c -0.95,0.165 -1.624,1.012 -1.567,1.975 l 0.875,14.836 c 0.01,0.168 -0.107,0.318 -0.273,0.348 -0.166,0.031 -0.328,-0.067 -0.379,-0.228 L 115.813,4.985 c -0.277,-0.881 -1.151,-1.432 -2.066,-1.305 -5.355,0.742 -8.924,1.306 -14.283,3.693 -0.785,0.35 -1.235,1.186 -1.097,2.034 l 4.069,24.987 c 0.066,0.404 -0.132,0.805 -0.493,0.998 -0.361,0.193 -0.804,0.136 -1.104,-0.143 L 80.764,16.59 c -0.573,-0.533 -1.416,-0.658 -2.119,-0.315 -14.207,6.92 -27.602,16.047 -39.666,27.38 -0.976,0.917 -1.54,2.19 -1.562,3.53 -0.021,1.34 0.501,2.63 1.449,3.578 l 34.041,34.041 c 1.87,1.87 4.881,1.935 6.834,0.152 39.382,-35.976 100.072,-35.976 139.454,0 1.955,1.786 4.962,1.721 6.834,-0.152 L 260.07,50.763 c 0.947,-0.947 1.468,-2.239 1.447,-3.578 -0.021,-1.34 -0.584,-2.613 -1.56,-3.53 z"
         id="path2"
         style="fill:#ffffff" />
    </g>
  </g>
</svg>
