<?xml version="1.0" encoding="UTF-8" standalone="no"?>
<!-- Created with Inkscape (http://www.inkscape.org/) -->

<svg
   width="1024"
   height="1024"
   viewBox="0 0 270.93333 270.93333"
   version="1.1"
   id="svg1"
   xml:space="preserve"
   inkscape:version="1.4.3 (0d15f75, 2025-12-25)"
   sodipodi:docname="logo.svg"
   inkscape:export-filename="logo.png"
   inkscape:export-xdpi="96"
   inkscape:export-ydpi="96"
   xmlns:inkscape="http://www.inkscape.org/namespaces/inkscape"
   xmlns:sodipodi="http://sodipodi.sourceforge.net/DTD/sodipodi-0.dtd"
   xmlns="http://www.w3.org/2000/svg"
   xmlns:svg="http://www.w3.org/2000/svg"><sodipodi:namedview
     id="namedview1"
     pagecolor="#ffffff"
     bordercolor="#000000"
     borderopacity="0.25"
     inkscape:showpageshadow="2"
     inkscape:pageopacity="0.0"
     inkscape:pagecheckerboard="0"
     inkscape:deskcolor="#d1d1d1"
     inkscape:document-units="mm"
     inkscape:zoom="0.50079291"
     inkscape:cx="723.85211"
     inkscape:cy="592.0611"
     inkscape:window-width="1920"
     inkscape:window-height="1013"
     inkscape:window-x="-9"
     inkscape:window-y="-9"
     inkscape:window-maximized="1"
     inkscape:current-layer="layer1"
     showguides="true" /><defs
     id="defs1" /><g
     inkscape:label="Camada 1"
     inkscape:groupmode="layer"
     id="layer1"><rect
       style="fill:#000000;fill-opacity:1;stroke-width:0.507632"
       id="rect5"
       width="270.93332"
       height="270.93332"
       x="7.1207683e-06"
       y="7.1207683e-06" /><path
       id="path4"
       style="fill:#ffffff;stroke-width:0.264583"
       d="m 148.98939,110.22862 c -6.74231,6.91038 -13.17542,14.19267 -13.17542,14.32781 0,0.1565 10.72276,0.25232 28.50885,0.25476 31.06521,0.004 30.37607,-0.0266 33.18506,1.50224 4.46167,2.42835 6.92661,8.50087 5.74693,14.15779 -0.69586,3.33686 -3.14359,6.7972 -5.74745,8.1256 -3.06955,1.56596 -8.44611,1.89142 -34.83457,2.10995 l -19.57606,0.16226 c 44.37856,39.51207 -7.60759,-6.64459 58.11221,51.72625 h 21.89634 l -27.36319,-25.01935 c -7.04136,-6.43822 -13.84159,-12.29833 -13.87253,-12.58889 -0.01,-0.0931 1.44042,-0.24654 3.22305,-0.34159 12.11675,-0.64613 14.49377,-1.04657 18.83245,-3.17138 11.26956,-5.51913 16.91181,-19.10354 13.22245,-31.83475 -2.40287,-8.29182 -8.73713,-15.11542 -16.51062,-17.78547 -4.29474,-1.47517 -3.34422,-1.42359 -28.40344,-1.52807 z"
       sodipodi:nodetypes="cscsssccccsccssscc" /><path
       id="path2"
       style="fill:#7b2dff;fill-opacity:1;stroke-width:0.264583"
       d="M 68.055853,68.338055 54.396783,84.329207 H 137.44185 L 47.828053,183.55802 h 89.004387 l 14.5924,-16.22875 H 85.058343 L 175.50192,68.338159 Z"
       sodipodi:nodetypes="ccccccccc" /></g></svg>
