<?xml version="1.0" encoding="UTF-8" standalone="no"?>
<!-- Created with Inkscape (http://www.inkscape.org/) -->

<svg
   width="1024"
   height="1024"
   viewBox="0 0 270.93333 270.93333"
   version="1.1"
   id="svg1"
   xml:space="preserve"
   inkscape:version="1.4.3 (0d15f75, 2025-12-25)"
   sodipodi:docname="logo.svg"
   inkscape:export-filename="logo.png"
   inkscape:export-xdpi="96"
   inkscape:export-ydpi="96"
   xmlns:inkscape="http://www.inkscape.org/namespaces/inkscape"
   xmlns:sodipodi="http://sodipodi.sourceforge.net/DTD/sodipodi-0.dtd"
   xmlns="http://www.w3.org/2000/svg"
   xmlns:svg="http://www.w3.org/2000/svg"><sodipodi:namedview
     id="namedview1"
     pagecolor="#ffffff"
     bordercolor="#000000"
     borderopacity="0.25"
     inkscape:showpageshadow="2"
     inkscape:pageopacity="0.0"
     inkscape:pagecheckerboard="0"
     inkscape:deskcolor="#d1d1d1"
     inkscape:document-units="mm"
     inkscape:zoom="0.35411406"
     inkscape:cx="70.598722"
     inkscape:cy="583.14545"
     inkscape:window-width="1920"
     inkscape:window-height="1013"
     inkscape:window-x="-9"
     inkscape:window-y="-9"
     inkscape:window-maximized="1"
     inkscape:current-layer="layer1" /><defs
     id="defs1" /><g
     inkscape:label="Camada 1"
     inkscape:groupmode="layer"
     id="layer1"><rect
       style="fill:#000000;fill-opacity:1;stroke-width:0.507632"
       id="rect5"
       width="270.93332"
       height="270.93332"
       x="7.1207683e-06"
       y="7.1207683e-06" /><g
       id="g5"
       transform="translate(243.68759,7.2227438)"><path
         id="path4"
         style="fill:#ffffff;stroke-width:0.264583"
         d="m -94.418892,100.1806 -1.36839,1.4025 c -3.28323,3.36585 -11.807028,12.69701 -11.807028,12.92531 0,0.1565 10.722758,0.25232 28.508848,0.25476 31.06521,0.004 30.37607,-0.0266 33.18506,1.50224 4.46167,2.42835 6.92661,8.50087 5.74693,14.15779 -0.69586,3.33686 -3.14359,6.7972 -5.74745,8.1256 -3.06955,1.56596 -8.44611,1.89142 -34.83457,2.10995 l -19.576058,0.16226 12.035438,10.70891 c 6.61923,5.89006 16.02352,14.28488 20.89847,18.65468 8.64128,7.74586 14.00767,12.51848 21.50049,19.12131 l 3.67781,3.24115 h 10.95902 c 6.02721,0 10.94897,-0.0893 10.93732,-0.19844 -0.0202,-0.18946 -3.14792,-3.09305 -7.62331,-7.07761 -2.31188,-2.05832 -8.22859,-7.3768 -19.73988,-17.7431 -4.22011,-3.80034 -9.06373,-8.14936 -10.76368,-9.66453 -1.69995,-1.51518 -3.09894,-2.8313 -3.10885,-2.92436 -0.01,-0.0931 1.44042,-0.24654 3.22305,-0.34159 12.11675,-0.64613 14.49377,-1.04657 18.83245,-3.17138 11.26956,-5.51913 16.91181,-19.10354 13.22245,-31.83475 -2.40287,-8.29182 -8.73713,-15.11542 -16.51062,-17.78547 -4.29474,-1.47517 -3.34422,-1.42359 -28.40344,-1.52807 z" /><path
         id="path3"
         style="fill:#ffffff;stroke-width:0.264583"
         d="m -94.418892,100.1806 23.24406,0.0972 c 25.05922,0.10448 24.1087,0.0529 28.40344,1.52807 7.77349,2.67005 14.10775,9.49365 16.51062,17.78547 3.68936,12.73121 -1.95289,26.31562 -13.22245,31.83475 -4.33868,2.12481 -6.7157,2.52525 -18.83245,3.17138 -1.78263,0.095 -3.23305,0.24849 -3.22305,0.34159 0.0099,0.0931 1.4089,1.40918 3.10885,2.92436 1.69995,1.51517 6.54357,5.86419 10.76368,9.66453 11.51129,10.3663 17.428,15.68478 19.73988,17.7431 4.47539,3.98456 7.60311,6.88815 7.62331,7.07761 0.01165,0.10913 -4.91011,0.19844 -10.93732,0.19844 h -10.95902 l -3.67781,-3.24115 c -7.49282,-6.60283 -12.85921,-11.37545 -21.50049,-19.12131 -4.87495,-4.3698 -14.27924,-12.76462 -20.89847,-18.65468 l -12.035438,-10.70891 19.576058,-0.16226 c 26.38846,-0.21853 31.76502,-0.54399 34.83457,-2.10995 2.60386,-1.3284 5.05159,-4.78874 5.74745,-8.1256 1.17968,-5.65692 -1.28526,-11.72944 -5.74693,-14.15779 -2.80899,-1.52882 -2.11985,-1.49824 -33.18506,-1.50224 -17.78609,-0.002 -28.508848,-0.0983 -28.508848,-0.25476 0,-0.2283 8.523798,-9.55946 11.807028,-12.92531 z" /><path
         id="path2"
         style="fill:#7b2dff;fill-opacity:1;stroke-width:0.264583"
         d="m -175.88162,64.237579 c -0.28555,0.152822 -0.43831,0.409287 -0.33899,0.569991 0.0993,0.160704 0.0623,0.218773 -0.0827,0.129191 -0.3897,-0.24085 -2.03737,1.553665 -1.79162,1.951302 0.12633,0.20441 0.0944,0.261138 -0.0847,0.150379 -0.1658,-0.102473 -2.11819,1.852232 -4.60488,4.610571 -4.13791,4.58993 -4.96364,5.610457 -4.15324,5.134053 0.20078,-0.118031 0.14079,0.04136 -0.13332,0.353984 -0.27411,0.312624 -0.58933,0.511723 -0.70074,0.442867 -0.28687,-0.177298 -1.8921,1.711218 -1.76888,2.08101 0.0764,0.229286 10.46204,0.323013 41.48687,0.374654 22.7619,0.03789 41.4632,0.09742 41.55819,0.132292 0.001,4.08e-4 0.003,0.0015 0.004,0.0021 0.0724,0.0564 -0.5168,0.804041 -1.32654,1.680517 -1.25981,1.363638 -13.11348,14.317374 -18.85518,20.60494 -11.81761,12.94112 -26.06852,28.4586 -31.58877,34.39686 -10.70707,11.51784 -32.69182,35.57756 -37.51605,41.05693 -0.27879,0.31665 -0.42785,0.70361 -0.33125,0.8599 0.19094,0.30896 97.524258,0.42726 99.058548,0.1204 0.6486,-0.12972 1.9946,-1.46275 6.44922,-6.38566 7.06922,-7.81237 8.14318,-9.04507 8.14318,-9.34723 0,-0.1467 -15.17479,-0.24288 -38.254518,-0.24288 -24.20958,0 -38.22196,-0.0931 -38.16614,-0.25321 0.13755,-0.39443 5.83953,-6.62392 23.3717,-25.53539 3.4925,-3.76727 7.12391,-7.70499 8.06979,-8.75037 4.30055,-4.75292 28.260688,-30.608154 35.052118,-37.824562 3.78254,-4.019237 20.91287,-22.584227 22.97845,-24.902873 0.53426,-0.59972 0.97151,-1.224798 0.97151,-1.389062 0,-0.409416 -106.680908,-0.429942 -107.445638,-0.02067 z" /></g></g></svg>
