<?xml version="1.0" encoding="UTF-8" standalone="no"?>
<!-- Uploaded to: SVG Repo, www.svgrepo.com, Generator: SVG Repo Mixer Tools -->

<svg
   width="512"
   height="512"
   viewBox="0 0 32 32"
   data-name="Layer 1"
   id="Layer_1"
   version="1.1"
   sodipodi:docname="AchieveIt.svg"
   inkscape:version="1.4 (86a8ad7, 2024-10-11)"
   inkscape:export-filename="AchieveIt.png"
   inkscape:export-xdpi="96"
   inkscape:export-ydpi="96"
   xmlns:inkscape="http://www.inkscape.org/namespaces/inkscape"
   xmlns:sodipodi="http://sodipodi.sourceforge.net/DTD/sodipodi-0.dtd"
   xmlns="http://www.w3.org/2000/svg"
   xmlns:svg="http://www.w3.org/2000/svg">
  <sodipodi:namedview
     id="namedview8"
     pagecolor="#ffffff"
     bordercolor="#000000"
     borderopacity="0.25"
     inkscape:showpageshadow="2"
     inkscape:pageopacity="0.0"
     inkscape:pagecheckerboard="0"
     inkscape:deskcolor="#d1d1d1"
     inkscape:zoom="0.483125"
     inkscape:cx="54.851229"
     inkscape:cy="208.0207"
     inkscape:window-width="1920"
     inkscape:window-height="991"
     inkscape:window-x="-9"
     inkscape:window-y="-9"
     inkscape:window-maximized="1"
     inkscape:current-layer="Layer_1" />
  <defs
     id="defs1">
    <style
       id="style1">.cls-1{fill:#231f20;}.cls-2{fill:#ff8e5a;}.cls-3{fill:#d12200;}.cls-4{fill:#ffffff;}.cls-5{fill:#ffba50;}.cls-6{fill:#00a1d3;}</style>
  </defs>
  <title
     id="title1" />
  <rect
     style="fill:#3aaa64;fill-opacity:1;stroke-width:0.125473"
     id="rect1-9"
     width="31.999998"
     height="31.999998"
     x="9.5367432e-07"
     y="9.5367432e-07" />
  <g
     id="g8"
     transform="matrix(0.54878049,0,0,0.54878049,2.2804878,2.2804878)">
    <path
       class="cls-1"
       d="M 43,8.277 H 40.548 V 7 a 2.5,2.5 0 0 0 -2.5,-2.5 H 37 A 2.5,2.5 0 0 0 34.5,7 v 1.277 h -19 V 7 A 2.5,2.5 0 0 0 13,4.5 H 11.952 A 2.5,2.5 0 0 0 9.452,7 V 8.277 H 7 a 2.5,2.5 0 0 0 -2.5,2.5 V 43 A 2.5,2.5 0 0 0 7,45.5 H 43 A 2.5,2.5 0 0 0 45.5,43 V 10.777 A 2.5,2.5 0 0 0 43,8.277 Z"
       id="path1" />
    <rect
       class="cls-2"
       height="6.4460001"
       rx="1.5"
       width="4.0440001"
       x="35.502998"
       y="5.5"
       id="rect1" />
    <rect
       class="cls-2"
       height="6.4460001"
       rx="1.5"
       width="4.0440001"
       x="10.452"
       y="5.5"
       id="rect2" />
    <path
       class="cls-3"
       d="M 5.5,10.777 A 1.5,1.5 0 0 1 7,9.277 h 2.452 v 1.169 a 2.5,2.5 0 0 0 2.5,2.5 H 13 a 2.5,2.5 0 0 0 2.5,-2.5 V 9.277 h 19 v 1.169 a 2.5,2.5 0 0 0 2.5,2.5 h 1.045 a 2.5,2.5 0 0 0 2.5,-2.5 V 9.277 H 43 a 1.5,1.5 0 0 1 1.5,1.5 v 3.691 h -39 z"
       id="path2" />
    <path
       class="cls-4"
       d="M 43,44.5 H 7 A 1.5,1.5 0 0 1 5.5,43 V 15.468 h 39 V 43 A 1.5,1.5 0 0 1 43,44.5 Z"
       id="path3" />
    <path
       class="cls-1"
       d="m 39.625,21.126 -2.493,-0.62 -0.06,-2.568 A 0.5,0.5 0 0 0 36.259,17.559 L 33.2,20.007 a 12.983,12.983 0 1 0 3.479,4.506 L 39.817,22 a 0.5,0.5 0 0 0 -0.192,-0.875 z"
       id="path4" />
    <path
       class="cls-5"
       d="m 36.135,20.649 -2.435,1.964 -0.039,-1.692 2.435,-1.95 z"
       id="path5" />
    <path
       class="cls-6"
       d="m 25,41.844 a 11.9,11.9 0 1 1 7.658,-20.992 l 0.06,2.552 -1.712,1.378 a 7.869,7.869 0 1 0 0.607,0.8 l 1.735,-1.4 2.356,0.586 A 11.763,11.763 0 0 1 36.9,29.946 11.912,11.912 0 0 1 25,41.844 Z"
       id="path6" />
    <path
       class="cls-4"
       d="m 24.542,30.372 a 0.5,0.5 0 0 0 0.469,0.325 0.491,0.491 0 0 0 0.175,-0.032 c 0.079,-0.029 0.191,-0.073 5.642,-4.455 a 6.962,6.962 0 1 1 -0.6,-0.8 c -2.812,2.259 -5.194,4.164 -5.468,4.356 a 0.5,0.5 0 0 0 -0.218,0.606 z"
       id="path7" />
    <path
       class="cls-5"
       d="m 35.968,23.8 -1.643,-0.409 2.421,-1.953 1.658,0.412 z"
       id="path8" />
  </g>
</svg>
