<?xml version="1.0" encoding="UTF-8" standalone="no"?>
<!-- Uploaded to: SVG Repo, www.svgrepo.com, Generator: SVG Repo Mixer Tools -->

<svg
   width="512"
   height="512"
   viewBox="0 0 32 32"
   data-name="Layer 1"
   id="Layer_1"
   version="1.1"
   sodipodi:docname="AchieveIt.svg"
   inkscape:version="1.4 (86a8ad7, 2024-10-11)"
   inkscape:export-filename="AchieveIt.png"
   inkscape:export-xdpi="96"
   inkscape:export-ydpi="96"
   xmlns:inkscape="http://www.inkscape.org/namespaces/inkscape"
   xmlns:sodipodi="http://sodipodi.sourceforge.net/DTD/sodipodi-0.dtd"
   xmlns="http://www.w3.org/2000/svg"
   xmlns:svg="http://www.w3.org/2000/svg">
  <sodipodi:namedview
     id="namedview8"
     pagecolor="#ffffff"
     bordercolor="#000000"
     borderopacity="0.25"
     inkscape:showpageshadow="2"
     inkscape:pageopacity="0.0"
     inkscape:pagecheckerboard="0"
     inkscape:deskcolor="#d1d1d1"
     inkscape:zoom="0.96625"
     inkscape:cx="309.96119"
     inkscape:cy="198.18887"
     inkscape:window-width="1920"
     inkscape:window-height="991"
     inkscape:window-x="-9"
     inkscape:window-y="-9"
     inkscape:window-maximized="1"
     inkscape:current-layer="Layer_1" />
  <defs
     id="defs1">
    <style
       id="style1">.cls-1{fill:#231f20;}.cls-2{fill:#ff8e5a;}.cls-3{fill:#d12200;}.cls-4{fill:#ffffff;}.cls-5{fill:#ffba50;}.cls-6{fill:#00a1d3;}</style>
  </defs>
  <title
     id="title1" />
  <rect
     style="fill:#3aaa64;fill-opacity:1;stroke-width:0.125473"
     id="rect1-9"
     width="31.999998"
     height="31.999998"
     x="9.5367432e-07"
     y="9.5367432e-07" />
  <path
     class="cls-1"
     d="m 25.878049,6.8227439 h -1.34561 V 6.1219512 A 1.3719512,1.3719512 0 0 0 23.160488,4.75 H 22.585366 A 1.3719512,1.3719512 0 0 0 21.213415,6.1219512 V 6.8227439 H 10.786585 V 6.1219512 A 1.3719512,1.3719512 0 0 0 9.4146342,4.75 H 8.8395122 A 1.3719512,1.3719512 0 0 0 7.467561,6.1219512 V 6.8227439 H 6.1219512 A 1.3719512,1.3719512 0 0 0 4.75,8.1946951 V 25.878049 A 1.3719512,1.3719512 0 0 0 6.1219512,27.25 H 25.878049 A 1.3719512,1.3719512 0 0 0 27.25,25.878049 V 8.1946951 A 1.3719512,1.3719512 0 0 0 25.878049,6.8227439 Z"
     id="path1"
     style="stroke-width:0.548781;fill:#000000;fill-opacity:1" />
  <rect
     class="cls-2"
     height="3.5374391"
     rx="0.82317072"
     width="2.2192683"
     x="21.76384"
     y="5.2987804"
     id="rect1"
     style="stroke-width:0.548781" />
  <rect
     class="cls-2"
     height="3.5374391"
     rx="0.82317072"
     width="2.2192683"
     x="8.0163412"
     y="5.2987804"
     id="rect2"
     style="stroke-width:0.548781" />
  <path
     class="cls-3"
     d="M 5.2987805,8.1946951 A 0.82317073,0.82317073 0 0 1 6.1219512,7.3715244 H 7.467561 V 8.0130488 A 1.3719512,1.3719512 0 0 0 8.8395122,9.385 h 0.575122 A 1.3719512,1.3719512 0 0 0 10.786585,8.0130488 V 7.3715244 h 10.42683 V 8.0130488 A 1.3719512,1.3719512 0 0 0 22.585366,9.385 h 0.573476 A 1.3719512,1.3719512 0 0 0 24.530793,8.0130488 V 7.3715244 h 1.347256 A 0.82317073,0.82317073 0 0 1 26.70122,8.1946951 V 10.220244 H 5.2987805 Z"
     id="path2"
     style="stroke-width:0.548781" />
  <path
     class="cls-4"
     d="M 25.878049,26.70122 H 6.1219512 A 0.82317073,0.82317073 0 0 1 5.2987805,25.878049 V 10.769024 H 26.70122 v 15.109025 a 0.82317073,0.82317073 0 0 1 -0.823171,0.823171 z"
     id="path3"
     style="stroke-width:0.548781" />
  <path
     class="cls-1"
     d="m 24.025915,13.874024 -1.36811,-0.340243 -0.03293,-1.409269 A 0.27439024,0.27439024 0 0 0 22.17872,11.916524 L 20.5,13.259939 a 7.1248171,7.1248171 0 1 0 1.909207,2.472805 l 1.722074,-1.379085 a 0.27439024,0.27439024 0 0 0 -0.105366,-0.480183 z"
     id="path4"
     style="stroke-width:0.548781;fill:#000000;fill-opacity:1" />
  <path
     class="cls-5"
     d="m 22.110671,13.612256 -1.336281,1.077805 -0.0214,-0.928537 1.33628,-1.070122 z"
     id="path5"
     style="stroke-width:0.548781" />
  <path
     class="cls-6"
     d="m 16,25.243659 a 6.5304878,6.5304878 0 1 1 4.202561,-11.52 l 0.03293,1.400487 -0.939512,0.75622 a 4.3183537,4.3183537 0 1 0 0.333109,0.439024 l 0.952135,-0.768292 1.292926,0.321585 A 6.4553049,6.4553049 0 0 1 22.530488,18.714268 6.5370732,6.5370732 0 0 1 16,25.243659 Z"
     id="path6"
     style="stroke-width:0.548781" />
  <path
     class="cls-4"
     d="m 15.748659,18.948049 a 0.27439024,0.27439024 0 0 0 0.257378,0.178354 0.26945122,0.26945122 0 0 0 0.09604,-0.01756 c 0.04335,-0.01591 0.104817,-0.04006 3.09622,-2.444818 A 3.8206098,3.8206098 0 1 1 18.869024,16.225 c -1.54317,1.239695 -2.850365,2.285122 -3.000731,2.390488 a 0.27439024,0.27439024 0 0 0 -0.119634,0.332561 z"
     id="path7"
     style="stroke-width:0.548781" />
  <path
     class="cls-5"
     d="m 22.019024,15.341463 -0.901646,-0.224451 1.328598,-1.071768 0.909878,0.226098 z"
     id="path8"
     style="stroke-width:0.548781" />
</svg>
