<?xml version="1.0" encoding="UTF-8" standalone="no"?>
<!-- Uploaded to: SVG Repo, www.svgrepo.com, Generator: SVG Repo Mixer Tools -->

<svg
   width="512"
   height="512"
   viewBox="0 0 32 32"
   data-name="Layer 1"
   id="Layer_1"
   version="1.1"
   sodipodi:docname="GoSales.svg"
   inkscape:version="1.4 (86a8ad7, 2024-10-11)"
   inkscape:export-filename="GoSales.png"
   inkscape:export-xdpi="96"
   inkscape:export-ydpi="96"
   xmlns:inkscape="http://www.inkscape.org/namespaces/inkscape"
   xmlns:sodipodi="http://sodipodi.sourceforge.net/DTD/sodipodi-0.dtd"
   xmlns="http://www.w3.org/2000/svg"
   xmlns:svg="http://www.w3.org/2000/svg">
  <sodipodi:namedview
     id="namedview17"
     pagecolor="#ffffff"
     bordercolor="#000000"
     borderopacity="0.25"
     inkscape:showpageshadow="2"
     inkscape:pageopacity="0.0"
     inkscape:pagecheckerboard="0"
     inkscape:deskcolor="#d1d1d1"
     inkscape:zoom="1.3664839"
     inkscape:cx="304.06506"
     inkscape:cy="213.32122"
     inkscape:window-width="1920"
     inkscape:window-height="991"
     inkscape:window-x="-9"
     inkscape:window-y="-9"
     inkscape:window-maximized="1"
     inkscape:current-layer="Layer_1" />
  <defs
     id="defs1">
    <style
       id="style1">.cls-1{fill:#231f20;}.cls-2{fill:#ffba50;}.cls-3{fill:#ff8e5a;}.cls-4{fill:#7cc05b;}.cls-5{fill:#8d7f89;}.cls-6{fill:#00a1d3;}</style>
  </defs>
  <title
     id="title1" />
  <rect
     style="fill:#3aaa64;fill-opacity:1;stroke-width:0.125473"
     id="rect1-9"
     width="31.999998"
     height="31.999998"
     x="9.5367432e-07"
     y="9.5367432e-07" />
  <g
     id="g18">
    <path
       style="fill:#ffffff;stroke-width:0.0625"
       d="m 16.688227,19.016818 0.840879,4.592497 8.150065,0.09703 0.84088,-4.818888 z"
       id="path18"
       sodipodi:nodetypes="ccccc" />
    <g
       id="g17"
       transform="matrix(0.54548692,0,0,0.54548692,2.2992041,2.4066644)">
      <path
         class="cls-1"
         d="m 43.554,38.866 1.939,-11.227 a 0.488,0.488 0 0 0 -0.048,-0.293 0.339,0.339 0 0 0 -0.018,-0.039 0.374,0.374 0 0 0 -0.045,-0.067 0.491,0.491 0 0 0 -0.4,-0.218 H 26.22 l -0.635,-3.674 a 1.654,1.654 0 0 0 -1.633,-1.376 h -3.189 a 1.442,1.442 0 0 0 -1.441,1.441 v 0.392 a 1.442,1.442 0 0 0 1.441,1.441 H 24.9 l 2.433,14.085 a 3.483,3.483 0 0 0 1.205,2.089 2.142,2.142 0 1 0 2.674,0.808 h 8.384 a 2.113,2.113 0 0 0 -0.334,1.136 2.136,2.136 0 1 0 3.73,-1.407 0.492,0.492 0 0 0 0.062,-0.229 0.5,0.5 0 0 0 -0.5,-0.5 H 30.771 A 2.481,2.481 0 0 1 28.35,39.289 h 14.71 a 0.459,0.459 0 0 0 0.494,-0.423 z M 39.52,30.975 h 4.38 l -0.309,1.794 A 0.5,0.5 0 0 0 43.476,32.746 H 39.3 Z m -0.349,2.771 h 4.253 l -0.306,1.772 h -4.169 z m -11.844,-1 a 0.489,0.489 0 0 0 -0.115,0.023 l -0.31,-1.794 h 4.408 l 0.217,1.771 z m 0.054,1 h 4.269 l 0.217,1.772 h -4.18 z m 0.785,4.543 -0.306,-1.771 h 4.129 l 0.217,1.771 z m 9.426,0 H 33.213 L 33,36.518 h 4.819 z m 0.349,-2.77 h -5.067 l -0.217,-1.772 h 5.506 z m 0.348,-2.772 h -5.755 l -0.217,-1.771 h 6.2 z m 4.352,5.542 H 38.6 l 0.223,-1.77 h 4.123 z"
         id="path1" />
      <path
         class="cls-1"
         d="M 23.44,35.2 H 23.1 a 1.384,1.384 0 0 0 0.071,-0.419 V 33.5 A 1.412,1.412 0 0 0 21.76,32.09 h -5.19 a 6.343,6.343 0 1 0 -9.757,2.164 6.34,6.34 0 0 0 7.262,10.351 1.411,1.411 0 0 0 1.309,0.891 h 8.056 a 1.412,1.412 0 0 0 1.41,-1.41 v -1.272 a 1.412,1.412 0 0 0 -1.41,-1.41 H 23.1 a 1.408,1.408 0 0 0 0.07,-0.418 V 39.711 A 1.408,1.408 0 0 0 23.1,39.293 h 0.341 a 1.412,1.412 0 0 0 1.41,-1.41 V 36.607 A 1.412,1.412 0 0 0 23.44,35.2 Z"
         id="path2" />
      <path
         class="cls-2"
         d="M 5.5,39.153 A 5.347,5.347 0 1 1 10.847,44.5 5.354,5.354 0 0 1 5.5,39.153 Z"
         id="path3" />
      <path
         class="cls-2"
         d="m 23.85,42.814 v 1.276 a 0.411,0.411 0 0 1 -0.41,0.41 h -8.058 a 0.411,0.411 0 0 1 -0.411,-0.41 0.494,0.494 0 0 0 -0.02,-0.1 6.374,6.374 0 0 0 1.337,-1.59 h 7.152 a 0.411,0.411 0 0 1 0.41,0.414 z"
         id="path4" />
      <path
         class="cls-1"
         d="M 10.847,34.7 A 4.449,4.449 0 1 0 15.3,39.153 4.454,4.454 0 0 0 10.847,34.7 Z"
         id="path5" />
      <path
         class="cls-3"
         d="M 10.847,42.6 A 3.449,3.449 0 1 1 14.3,39.153 3.453,3.453 0 0 1 10.847,42.6 Z"
         id="path6" />
      <path
         class="cls-3"
         d="m 16.774,41.4 a 6.284,6.284 0 0 0 0.413,-2.1 h 4.571 a 0.41,0.41 0 0 1 0.411,0.41 v 1.275 a 0.41,0.41 0 0 1 -0.411,0.41 c -0.013,0 -0.025,0.007 -0.038,0.008 z"
         id="path7" />
      <path
         class="cls-1"
         d="m 11.026,38.651 h -0.361 a 0.414,0.414 0 0 1 0,-0.828 h 1.067 a 0.5,0.5 0 0 0 0,-1 h -0.385 v -0.4 a 0.5,0.5 0 0 0 -1,0 v 0.438 a 1.412,1.412 0 0 0 0.321,2.789 h 0.362 a 0.414,0.414 0 0 1 0,0.828 H 9.962 a 0.5,0.5 0 0 0 0,1 h 0.385 v 0.4 a 0.5,0.5 0 0 0 1,0 V 41.44 a 1.412,1.412 0 0 0 -0.321,-2.789 z"
         id="path8" />
      <path
         class="cls-2"
         d="m 5.5,29.369 a 5.347,5.347 0 1 1 8.515,4.292 6.295,6.295 0 0 0 -6.335,0 5.325,5.325 0 0 1 -2.18,-4.292 z"
         id="path9" />
      <path
         class="cls-1"
         d="m 16.974,16.381 a 3.3,3.3 0 0 0 2.794,-1.561 l 6.583,2.743 a 3.305,3.305 0 1 0 6.01,-1.1 L 39.932,10.2 A 3.424,3.424 0 1 0 39.323,9.405 l -7.632,6.311 a 3.26,3.26 0 0 0 -4.975,0.917 L 20.161,13.9 a 3.3,3.3 0 1 0 -3.187,2.482 z"
         id="path10" />
      <path
         class="cls-4"
         d="M 42.2,5.5 A 2.3,2.3 0 1 1 39.9,7.8 2.306,2.306 0 0 1 42.2,5.5 Z"
         id="path11" />
      <path
         class="cls-4"
         d="m 29.585,15.934 a 2.3,2.3 0 1 1 -2.3,2.3 2.306,2.306 0 0 1 2.3,-2.3 z"
         id="path12" />
      <path
         class="cls-4"
         d="m 16.974,10.773 a 2.3,2.3 0 1 1 -2.3,2.3 2.306,2.306 0 0 1 2.3,-2.3 z"
         id="path13" />
      <path
         class="cls-5"
         d="m 20.763,24.246 a 0.442,0.442 0 0 1 -0.441,-0.441 v -0.392 a 0.442,0.442 0 0 1 0.441,-0.441 h 3.189 a 0.657,0.657 0 0 1 0.648,0.546 l 0.126,0.728 z"
         id="path14" />
      <path
         class="cls-6"
         d="M 29.409,44.5 A 1.136,1.136 0 1 1 30.545,43.364 1.137,1.137 0 0 1 29.409,44.5 Z"
         id="path15" />
      <circle
         class="cls-6"
         cx="41.396"
         cy="43.363998"
         r="1.136"
         id="circle15" />
      <polygon
         class="cls-5"
         points="44.075,29.975 26.73,29.975 26.392,28.022 44.412,28.022 "
         id="polygon15" />
      <path
         class="cls-3"
         d="m 21.758,33.094 a 0.41,0.41 0 0 1 0.411,0.41 v 1.274 a 0.411,0.411 0 0 1 -0.411,0.411 c -0.013,0 -0.025,0.007 -0.038,0.008 H 15.8 a 6.325,6.325 0 0 0 -0.919,-0.939 6.4,6.4 0 0 0 1.1,-1.164 z"
         id="path16" />
      <path
         class="cls-2"
         d="m 23.85,37.883 a 0.411,0.411 0 0 1 -0.41,0.41 h -1.682 c -0.013,0 -0.025,0.007 -0.038,0.008 h -4.59 a 6.3,6.3 0 0 0 -0.67,-2.1 h 6.98 a 0.411,0.411 0 0 1 0.41,0.41 z"
         id="path17" />
    </g>
  </g>
</svg>
