<?xml version="1.0" encoding="UTF-8" standalone="no"?>
<!-- Uploaded to: SVG Repo, www.svgrepo.com, Generator: SVG Repo Mixer Tools -->

<svg
   width="512"
   height="512"
   viewBox="0 0 32 32"
   data-name="Layer 1"
   id="Layer_1"
   version="1.1"
   sodipodi:docname="GoSales.svg"
   inkscape:version="1.4 (86a8ad7, 2024-10-11)"
   inkscape:export-filename="GoSales.png"
   inkscape:export-xdpi="96"
   inkscape:export-ydpi="96"
   xmlns:inkscape="http://www.inkscape.org/namespaces/inkscape"
   xmlns:sodipodi="http://sodipodi.sourceforge.net/DTD/sodipodi-0.dtd"
   xmlns="http://www.w3.org/2000/svg"
   xmlns:svg="http://www.w3.org/2000/svg">
  <sodipodi:namedview
     id="namedview17"
     pagecolor="#ffffff"
     bordercolor="#000000"
     borderopacity="0.25"
     inkscape:showpageshadow="2"
     inkscape:pageopacity="0.0"
     inkscape:pagecheckerboard="0"
     inkscape:deskcolor="#d1d1d1"
     inkscape:zoom="1.3664839"
     inkscape:cx="304.06505"
     inkscape:cy="213.32121"
     inkscape:window-width="1920"
     inkscape:window-height="991"
     inkscape:window-x="-9"
     inkscape:window-y="-9"
     inkscape:window-maximized="1"
     inkscape:current-layer="Layer_1" />
  <defs
     id="defs1">
    <style
       id="style1">.cls-1{fill:#231f20;}.cls-2{fill:#ffba50;}.cls-3{fill:#ff8e5a;}.cls-4{fill:#7cc05b;}.cls-5{fill:#8d7f89;}.cls-6{fill:#00a1d3;}</style>
  </defs>
  <title
     id="title1" />
  <rect
     style="fill:#3aaa64;fill-opacity:1;stroke-width:0.125473"
     id="rect1-9"
     width="31.999998"
     height="31.999998"
     x="9.5367432e-07"
     y="9.5367432e-07" />
  <path
     style="fill:#ffffff;stroke-width:0.0625"
     d="m 16.688227,19.016818 0.840879,4.592497 8.150065,0.09703 0.84088,-4.818888 z"
     id="path18"
     sodipodi:nodetypes="ccccc" />
  <path
     class="cls-1"
     d="m 26.057341,23.607559 1.0577,-6.124182 a 0.26619762,0.26619762 0 0 0 -0.02618,-0.159827 0.18492007,0.18492007 0 0 0 -0.0098,-0.02127 0.20401211,0.20401211 0 0 0 -0.02455,-0.03655 0.26783408,0.26783408 0 0 0 -0.218195,-0.118916 H 16.601871 l -0.346384,-2.004119 a 0.90223537,0.90223537 0 0 0 -0.89078,-0.75059 h -1.739558 a 0.78659214,0.78659214 0 0 0 -0.786047,0.786047 v 0.213831 a 0.78659214,0.78659214 0 0 0 0.786047,0.786046 h 2.256679 l 1.32717,7.683183 a 1.8999309,1.8999309 0 0 0 0.657312,1.139523 1.168433,1.168433 0 1 0 1.458632,0.440753 h 4.573362 a 1.1526139,1.1526139 0 0 0 -0.182192,0.619673 1.1651601,1.1651601 0 1 0 2.034666,-0.7675 0.26837956,0.26837956 0 0 0 0.03382,-0.124916 0.27274346,0.27274346 0 0 0 -0.272744,-0.272744 H 19.084382 A 1.353353,1.353353 0 0 1 17.763758,23.8383 h 8.024113 a 0.2503785,0.2503785 0 0 0 0.26947,-0.230741 z m -2.200494,-4.304437 h 2.389233 l -0.168556,0.978603 a 0.27274346,0.27274346 0 0 0 -0.06273,-0.01255 H 23.73684 Z m -0.190375,1.511544 h 2.319956 l -0.166919,0.966603 h -2.274135 z m -6.460747,-0.545487 a 0.2667431,0.2667431 0 0 0 -0.06273,0.01255 L 16.973893,19.303122 H 19.3784 l 0.11837,0.966057 z m 0.02946,0.545487 h 2.328684 l 0.118371,0.966603 H 17.4021 Z m 0.428208,2.478147 -0.166919,-0.966057 h 2.252315 l 0.118371,0.966057 z m 5.141759,0 h -2.388687 l -0.116189,-0.966057 h 2.628702 z m 0.190375,-1.510999 H 20.231541 L 20.11317,20.815211 h 3.003451 z m 0.18983,-1.512089 H 20.04608 l -0.118371,-0.966058 h 3.382019 z m 2.373959,3.023088 h -2.204313 l 0.121644,-0.965512 h 2.249042 z"
     id="path1"
     style="stroke-width:0.545487;fill:#000000;fill-opacity:1" />
  <path
     class="cls-1"
     d="m 15.085418,21.607804 h -0.185466 a 0.7549539,0.7549539 0 0 0 0.03873,-0.228559 V 20.680476 A 0.77022753,0.77022753 0 0 0 14.168999,19.91134 h -2.831077 a 3.4600235,3.4600235 0 1 0 -5.3223155,1.180433 3.4583871,3.4583871 0 0 0 3.961326,5.646335 0.76968204,0.76968204 0 0 0 0.7140425,0.486029 h 4.394443 a 0.77022753,0.77022753 0 0 0 0.769136,-0.769136 v -0.69386 a 0.77022753,0.77022753 0 0 0 -0.769136,-0.769136 h -0.185466 a 0.76804558,0.76804558 0 0 0 0.03818,-0.228014 v -0.695496 a 0.76804558,0.76804558 0 0 0 -0.03818,-0.228013 h 0.186011 A 0.77022753,0.77022753 0 0 0 15.8551,23.071345 v -0.696041 a 0.77022753,0.77022753 0 0 0 -0.769682,-0.7675 z"
     id="path2"
     style="stroke-width:0.545487;fill:#000000;fill-opacity:1" />
  <path
     class="cls-2"
     d="M 5.2993822,23.764114 A 2.9167186,2.9167186 0 1 1 8.2161007,26.680832 2.920537,2.920537 0 0 1 5.2993822,23.764114 Z"
     id="path3"
     style="stroke-width:0.545487" />
  <path
     class="cls-2"
     d="m 15.309067,25.761141 v 0.696042 a 0.22419512,0.22419512 0 0 1 -0.223649,0.223649 h -4.395534 a 0.22419512,0.22419512 0 0 1 -0.224195,-0.223649 0.26947054,0.26947054 0 0 0 -0.01091,-0.05455 3.4769336,3.4769336 0 0 0 0.729316,-0.867324 h 3.901323 a 0.22419512,0.22419512 0 0 1 0.223649,0.225831 z"
     id="path4"
     style="stroke-width:0.545487" />
  <path
     class="cls-1"
     d="M 8.2161007,21.335061 A 2.4268713,2.4268713 0 1 0 10.645154,23.764114 2.4295987,2.4295987 0 0 0 8.2161007,21.335061 Z"
     id="path5"
     style="stroke-width:0.545487;fill:#000000;fill-opacity:1" />
  <path
     class="cls-3"
     d="M 8.2161007,25.644407 A 1.8813844,1.8813844 0 1 1 10.099667,23.764114 1.8835663,1.8835663 0 0 1 8.2161007,25.644407 Z"
     id="path6"
     style="stroke-width:0.545487" />
  <path
     class="cls-3"
     d="M 11.449202,24.989823 A 3.4278398,3.4278398 0 0 0 11.674488,23.8443 h 2.493421 a 0.22364964,0.22364964 0 0 1 0.224195,0.22365 v 0.695496 a 0.22364964,0.22364964 0 0 1 -0.224195,0.223649 c -0.0071,0 -0.01364,0.0038 -0.02073,0.0044 z"
     id="path7"
     style="stroke-width:0.545487" />
  <path
     class="cls-1"
     d="M 8.3137429,23.490279 H 8.1168221 a 0.22583158,0.22583158 0 0 1 0,-0.451663 h 0.5820345 a 0.2727435,0.2727435 0 0 0 0,-0.545487 H 8.4888442 v -0.218195 a 0.27274346,0.27274346 0 0 0 -0.5454869,0 v 0.238924 a 0.77022753,0.77022753 0 0 0 0.1751013,1.521363 h 0.1974662 a 0.22583158,0.22583158 0 0 1 0,0.451663 h -0.58258 a 0.2727435,0.2727435 0 0 0 0,0.545487 h 0.2100125 v 0.218195 a 0.27274346,0.27274346 0 0 0 0.5454869,0 V 25.011642 A 0.77022753,0.77022753 0 0 0 8.3137429,23.490279 Z"
     id="path8"
     style="stroke-width:0.545487;fill:#000000;fill-opacity:1" />
  <path
     class="cls-2"
     d="m 5.2993822,18.42707 a 2.9167186,2.9167186 0 1 1 4.6448211,2.34123 3.4338402,3.4338402 0 0 0 -3.4556597,0 2.9047178,2.9047178 0 0 1 -1.1891614,-2.34123 z"
     id="path9"
     style="stroke-width:0.545487" />
  <path
     class="cls-1"
     d="m 11.558299,11.342286 a 1.8001068,1.8001068 0 0 0 1.524091,-0.851505 l 3.59094,1.49627 a 1.8028343,1.8028343 0 1 0 3.278376,-0.600035 L 24.081588,7.970631 A 1.8677472,1.8677472 0 1 0 23.749386,7.5369689 L 19.58623,10.979537 a 1.7782874,1.7782874 0 0 0 -2.713797,0.500211 L 13.296766,9.9889326 a 1.8001068,1.8001068 0 1 0 -1.738467,1.3538984 z"
     id="path10"
     style="stroke-width:0.545487;fill:#000000;fill-opacity:1" />
  <path
     class="cls-4"
     d="m 25.318752,5.4068425 a 1.2546199,1.2546199 0 1 1 -1.25462,1.2546199 1.2578928,1.2578928 0 0 1 1.25462,-1.2546199 z"
     id="path11"
     style="stroke-width:0.545487" />
  <path
     class="cls-4"
     d="m 18.437435,11.098453 a 1.2546199,1.2546199 0 1 1 -1.25462,1.25462 1.2578928,1.2578928 0 0 1 1.25462,-1.25462 z"
     id="path12"
     style="stroke-width:0.545487" />
  <path
     class="cls-4"
     d="m 11.558299,8.283195 a 1.2546199,1.2546199 0 1 1 -1.25462,1.2546199 1.2578928,1.2578928 0 0 1 1.25462,-1.2546199 z"
     id="path13"
     style="stroke-width:0.545487" />
  <path
     class="cls-5"
     d="m 13.625149,15.63254 a 0.24110522,0.24110522 0 0 1 -0.24056,-0.240559 V 15.17815 a 0.24110522,0.24110522 0 0 1 0.24056,-0.24056 h 1.739558 a 0.35838491,0.35838491 0 0 1 0.353475,0.297836 l 0.06873,0.397114 z"
     id="path14"
     style="stroke-width:0.545487" />
  <path
     class="cls-6"
     d="m 18.341429,26.680832 a 0.61967314,0.61967314 0 1 1 0.619673,-0.619673 0.62021863,0.62021863 0 0 1 -0.619673,0.619673 z"
     id="path15"
     style="stroke-width:0.545487" />
  <circle
     class="cls-6"
     cx="24.88018"
     cy="26.061159"
     r="0.61967313"
     id="circle15"
     style="stroke-width:0.545487" />
  <polygon
     class="cls-5"
     points="44.075,29.975 26.73,29.975 26.392,28.022 44.412,28.022 "
     id="polygon15"
     transform="matrix(0.54548692,0,0,0.54548692,2.2992041,2.4066644)" />
  <path
     class="cls-3"
     d="m 14.167909,20.459009 a 0.22364964,0.22364964 0 0 1 0.224195,0.223649 v 0.694951 a 0.22419512,0.22419512 0 0 1 -0.224195,0.224195 c -0.0071,0 -0.01364,0.0038 -0.02073,0.0044 h -3.229283 a 3.4502048,3.4502048 0 0 0 -0.501302,-0.512213 3.4911163,3.4911163 0 0 0 0.600036,-0.634946 z"
     id="path16"
     style="stroke-width:0.545487" />
  <path
     class="cls-2"
     d="m 15.309067,23.071345 a 0.22419512,0.22419512 0 0 1 -0.223649,0.22365 h -0.917509 c -0.0071,0 -0.01364,0.0038 -0.02073,0.0044 h -2.503785 a 3.4365676,3.4365676 0 0 0 -0.365476,-1.145523 h 3.807499 a 0.22419512,0.22419512 0 0 1 0.223649,0.22365 z"
     id="path17"
     style="stroke-width:0.545487" />
</svg>
