<?xml version="1.0" encoding="UTF-8" standalone="no"?>
<!-- Uploaded to: SVG Repo, www.svgrepo.com, Generator: SVG Repo Mixer Tools -->

<svg
   version="1.1"
   id="Layer_1"
   viewBox="0 0 512.00002 512.00002"
   xml:space="preserve"
   sodipodi:docname="HomeChef.svg"
   width="512"
   height="512"
   inkscape:version="1.4 (86a8ad7, 2024-10-11)"
   inkscape:export-filename="HomeChef.png"
   inkscape:export-xdpi="96"
   inkscape:export-ydpi="96"
   xmlns:inkscape="http://www.inkscape.org/namespaces/inkscape"
   xmlns:sodipodi="http://sodipodi.sourceforge.net/DTD/sodipodi-0.dtd"
   xmlns="http://www.w3.org/2000/svg"
   xmlns:svg="http://www.w3.org/2000/svg"><defs
   id="defs22" /><sodipodi:namedview
   id="namedview22"
   pagecolor="#ffffff"
   bordercolor="#000000"
   borderopacity="0.25"
   inkscape:showpageshadow="2"
   inkscape:pageopacity="0.0"
   inkscape:pagecheckerboard="0"
   inkscape:deskcolor="#d1d1d1"
   inkscape:zoom="1"
   inkscape:cx="255.5"
   inkscape:cy="256.5"
   inkscape:window-width="1920"
   inkscape:window-height="991"
   inkscape:window-x="-9"
   inkscape:window-y="-9"
   inkscape:window-maximized="1"
   inkscape:current-layer="Layer_1" />





















<rect
   style="fill:#3aaa64;fill-opacity:1;stroke-width:2.00757"
   id="rect1-9"
   width="511.99997"
   height="511.99997"
   x="1.5258789e-05"
   y="1.5258789e-05" /><g
   id="g22"
   transform="matrix(0.70312363,0,0,0.70312363,75.999999,75.999999)"><rect
     x="378.35101"
     y="280.987"
     style="fill:#eeb45d"
     width="123.202"
     height="175.431"
     id="rect1" /><path
     style="fill:#ffffff"
     d="m 213.864,319.119 v 20.353 c 0,6.799 -4.088,12.932 -10.365,15.549 l -67.241,28.017 c -14.206,5.92 -23.459,22.008 -23.459,37.397 v 81.092 h 286.352 v -81.092 c 0,-15.389 -9.254,-31.479 -23.459,-37.397 L 308.45,355.022 c -6.277,-2.615 -10.365,-8.749 -10.365,-15.549 V 319.12 h -84.221 z"
     id="path1" /><path
     style="fill:#27b5f7"
     d="M 375.692,383.037 308.45,355.021 c -2.003,-0.835 -3.78,-2.03 -5.276,-3.489 l -47.103,15.351 -47.232,-15.42 c -1.51,1.489 -3.308,2.71 -5.342,3.558 l -67.241,28.016 c -14.206,5.92 -23.459,22.008 -23.459,37.397 v 81.092 h 286.352 v -81.092 c 0.002,-15.388 -9.253,-31.478 -23.457,-37.397 z"
     id="path2" /><path
     style="fill:#febba0"
     d="m 162.311,168.721 h -0.368 v 30.443 c -12.925,0 -23.403,10.478 -23.403,23.403 0,12.925 10.478,23.403 23.403,23.403 v 17.472 c 1.126,14.735 8.311,27.853 19.192,35.038 l 56.575,32.343 c 11.36,7.503 25.173,7.503 36.533,0 l 56.405,-32.343 c 10.879,-7.185 18.233,-20.303 19.36,-35.038 V 245.97 c 12.925,0 23.403,-10.478 23.403,-23.403 0,-12.925 -10.478,-23.403 -23.403,-23.403 v -30.443 z"
     id="path3" /><path
     style="fill:#304967"
     d="m 350.088,267.34 c -4.573,3.171 -6.09,3.855 -13.768,3.855 -18.03,0 -31.259,-23.519 -54.826,-23.519 -6.555,0 -15.603,2.528 -25.489,11.332 -9.886,-8.803 -18.934,-11.332 -25.489,-11.332 -23.566,0 -36.797,23.519 -54.826,23.519 -7.678,0 -9.195,-0.684 -13.768,-3.855 -5.023,-3.483 -5.407,0.083 -4.561,2.822 4.896,13.292 23.265,35.956 48.432,35.956 23.214,0 39.022,-6.122 50.212,-19.742 11.19,13.62 26.997,19.742 50.212,19.742 25.167,0 43.537,-22.665 48.432,-35.956 0.845,-2.74 0.462,-6.306 -4.561,-2.822 z"
     id="path4" /><g
     id="g7">
	<path
   style="fill:#ffffff"
   d="m 245.74,407.099 c -13.845,13.845 -39.814,10.323 -39.814,10.323 0,0 -3.523,-25.969 10.323,-39.814 13.845,-13.845 39.814,-10.323 39.814,-10.323 0,0 3.521,25.968 -10.323,39.814 z"
   id="path5" />
	<path
   style="fill:#ffffff"
   d="m 266.392,407.099 c 13.845,13.845 39.814,10.323 39.814,10.323 0,0 3.523,-25.969 -10.323,-39.814 -13.845,-13.845 -39.814,-10.323 -39.814,-10.323 0,0 -3.522,25.968 10.323,39.814 z"
   id="path6" />
	<path
   style="fill:#ffffff"
   d="m 387.632,74.873 c 0,-27.697 -22.453,-50.15 -50.15,-50.15 -12.124,0 -23.242,4.302 -31.913,11.463 -10.1,-15.475 -27.557,-25.712 -47.417,-25.712 -20.891,0 -39.124,11.328 -48.93,28.168 -9.005,-8.615 -21.206,-13.919 -34.654,-13.919 -27.697,0 -50.15,22.453 -50.15,50.15 0,23.307 15.901,42.896 37.444,48.522 v 56.335 h 188.063 v -56.265 c 21.679,-5.535 37.707,-25.191 37.707,-48.592 z"
   id="path7" />
</g><rect
     x="453.44"
     y="39.525002"
     style="fill:#eeb45d"
     width="48.112999"
     height="161.68201"
     id="rect7" /><path
     style="fill:#e6e6e6"
     d="m 10.499,124.55 v 0 c 31.035,0 56.426,25.392 56.426,56.426 V 305.96 H 10.577 Z"
     id="path8" /><path
     style="fill:#314967"
     d="m 42.838,305.961 v 65.632 c 0,8.867 -7.255,16.122 -16.121,16.122 v 0 c -8.867,0 -16.122,-7.255 -16.122,-16.122 v -65.632 z"
     id="path9" /><path
     d="M 10.585,491.078 H 10.448 C 4.679,491.078 0,495.756 0,501.526 c 0,5.77 4.679,10.448 10.448,10.448 h 0.137 c 5.769,0 10.448,-4.678 10.448,-10.448 0,-5.77 -4.679,-10.448 -10.448,-10.448 z"
     id="path10" /><path
     d="m 501.501,491.078 h -0.137 c -5.769,0 -10.448,4.678 -10.448,10.448 0,5.77 4.679,10.448 10.448,10.448 h 0.137 c 5.769,0 10.448,-4.678 10.448,-10.448 0,-5.77 -4.679,-10.448 -10.448,-10.448 z"
     id="path11" /><path
     d="m 294.078,212.118 c -6.439,0 -11.679,5.239 -11.679,11.679 0,6.439 5.24,11.678 11.679,11.678 6.439,0 11.678,-5.239 11.678,-11.678 -10e-4,-6.439 -5.239,-11.679 -11.678,-11.679 z"
     id="path12" /><path
     d="m 229.549,223.797 c 0,-6.44 -5.24,-11.679 -11.679,-11.679 -6.439,0 -11.678,5.239 -11.678,11.679 0,6.439 5.239,11.678 11.678,11.678 6.439,0 11.679,-5.239 11.679,-11.678 z"
     id="path13" /><path
     d="m 281.275,456.078 h -0.137 c -5.769,0 -10.448,4.678 -10.448,10.448 0,5.77 4.679,10.448 10.448,10.448 h 0.137 c 5.769,0 10.448,-4.678 10.448,-10.448 0,-5.77 -4.679,-10.448 -10.448,-10.448 z"
     id="path14" /><path
     d="m 230.993,456.077 h -0.137 c -5.769,0 -10.448,4.678 -10.448,10.448 0,5.77 4.679,10.448 10.448,10.448 h 0.137 c 5.769,0 10.448,-4.678 10.448,-10.448 0,-5.77 -4.678,-10.448 -10.448,-10.448 z"
     id="path15" /><path
     d="M 501.552,29.077 H 487.944 V 10.606 c 0,-5.77 -4.679,-10.448 -10.448,-10.448 -5.769,0 -10.448,4.678 -10.448,10.448 V 29.077 H 453.44 c -5.769,0 -10.448,4.678 -10.448,10.448 v 161.678 c 0,5.77 4.679,10.448 10.448,10.448 h 13.608 v 18.231 c 0,5.77 4.679,10.448 10.448,10.448 5.769,0 10.448,-4.678 10.448,-10.448 V 211.65 h 13.608 c 5.769,0 10.448,-4.678 10.448,-10.448 V 39.525 c 0,-5.771 -4.679,-10.448 -10.448,-10.448 z M 491.104,190.754 H 463.886 V 49.972 h 27.218 z"
     id="path16" /><path
     d="m 10.499,114.102 c -2.772,0 -5.43,1.101 -7.389,3.062 -1.96,1.96 -3.06,4.619 -3.059,7.391 l 0.095,247.038 c 0,14.65 11.919,26.57 26.57,26.57 14.651,0 26.57,-11.919 26.57,-26.57 v -55.184 h 13.64 c 5.769,0 10.448,-4.678 10.448,-10.448 V 180.976 c -10e-4,-36.874 -30,-66.874 -66.875,-66.874 z M 32.39,371.593 c 0,3.076 -2.598,5.674 -5.674,5.674 -3.076,0 -5.674,-2.598 -5.674,-5.674 V 316.409 H 32.39 Z M 56.477,295.514 H 21.021 L 20.952,136.198 c 20.333,4.745 35.525,23.022 35.525,44.78 z"
     id="path17" /><path
     d="m 470.141,335.355 c 5.769,0 10.448,-4.678 10.448,-10.448 v -0.137 c 0,-5.77 -4.679,-10.448 -10.448,-10.448 -5.769,0 -10.448,4.678 -10.448,10.448 v 0.137 c 0,5.77 4.679,10.448 10.448,10.448 z"
     id="path18" /><path
     d="m 470.142,348.259 c -5.769,0 -10.448,4.678 -10.448,10.448 v 39.199 c 0,5.77 4.679,10.448 10.448,10.448 5.769,0 10.448,-4.678 10.448,-10.448 v -39.199 c 0,-5.771 -4.677,-10.448 -10.448,-10.448 z"
     id="path19" /><path
     d="m 197.055,456.078 h -39.198 c -5.769,0 -10.448,4.678 -10.448,10.448 0,5.77 4.679,10.448 10.448,10.448 h 39.199 c 5.769,0 10.448,-4.678 10.448,-10.448 0,-5.77 -4.678,-10.448 -10.449,-10.448 z"
     id="path20" /><path
     d="m 501.552,270.54 h -32.069 c 1.156,-3.264 1.791,-6.771 1.791,-10.426 0,-17.27 -14.05,-31.322 -31.322,-31.322 -17.272,0 -31.322,14.051 -31.322,31.322 0,3.655 0.635,7.162 1.791,10.426 h -32.069 c -5.769,0 -10.448,4.678 -10.448,10.448 v 87.487 l -55.437,-23.098 c -2.39,-0.996 -3.936,-3.313 -3.936,-5.904 v -16.27 l 21.372,-12.254 c 17.338,-8.401 29.915,-24.6 34.546,-37.176 0.065,-0.174 0.124,-0.351 0.179,-0.529 1.937,-6.276 0.346,-12.222 -4.155,-15.516 -0.006,-0.005 -0.016,-0.01 -0.022,-0.016 v -2.944 c 13.568,-4.413 23.402,-17.181 23.402,-32.202 0,-15.021 -9.835,-27.788 -23.402,-32.202 l -0.079,-59.365 c 22.558,-9.171 37.707,-31.205 37.707,-56.127 0,-33.414 -27.185,-60.598 -60.598,-60.598 -10.429,0 -20.662,2.71 -29.669,7.762 C 295.202,8.098 277.289,0.025 258.151,0.025 c -19.783,0 -38.483,8.853 -51.107,23.684 -9.637,-6.14 -20.836,-9.436 -32.476,-9.436 -33.414,0 -60.598,27.184 -60.598,60.598 0,24.783 15.043,46.773 37.445,56.016 l 0.08,59.478 c -13.568,4.413 -23.402,17.181 -23.402,32.202 0,15.021 9.835,27.788 23.402,32.202 v 2.991 c -4.468,3.299 -6.047,9.226 -4.118,15.482 0.055,0.18 0.115,0.357 0.18,0.534 4.065,11.033 14.245,24.86 28.389,33.759 0.003,0.003 3.066,1.844 4.558,2.621 l 22.91,13.098 v 16.22 c 0,2.59 -1.545,4.907 -3.936,5.904 l -67.241,28.017 c -17.597,7.332 -29.887,26.677 -29.887,47.041 V 491.08 H 44.386 c -5.769,0 -10.448,4.678 -10.448,10.448 0,5.77 4.679,10.448 10.448,10.448 h 423.178 c 5.769,0 10.448,-4.678 10.448,-10.448 0,-5.77 -4.679,-10.448 -10.448,-10.448 h -57.965 v -24.216 h 91.954 c 5.769,0 10.448,-4.678 10.448,-10.448 V 280.988 C 512,275.217 507.321,270.54 501.552,270.54 Z m -61.599,-20.852 c 5.748,0 10.426,4.678 10.426,10.426 0,5.748 -4.678,10.426 -10.426,10.426 -5.749,0 -10.426,-4.678 -10.426,-10.426 0,-5.749 4.677,-10.426 10.426,-10.426 z M 134.866,74.873 c 0,-21.892 17.811,-39.702 39.702,-39.702 10.261,0 20.004,3.914 27.431,11.019 2.314,2.213 5.518,3.243 8.682,2.796 3.17,-0.447 5.96,-2.323 7.57,-5.088 8.252,-14.173 23.541,-22.977 39.901,-22.977 15.641,0 30.096,7.841 38.668,20.975 1.626,2.491 4.236,4.171 7.176,4.618 2.94,0.45 5.932,-0.378 8.226,-2.272 7.084,-5.851 16.055,-9.072 25.262,-9.072 21.892,0 39.702,17.811 39.702,39.702 0,18.164 -12.272,33.982 -29.842,38.469 -4.627,1.181 -7.863,5.348 -7.863,10.123 v 45.817 H 172.313 v -45.886 c 0,-4.754 -3.209,-8.908 -7.809,-10.108 -17.45,-4.557 -29.638,-20.354 -29.638,-38.414 z m 40.824,185.874 c -1.471,0 -2.498,-0.001 -3.299,-0.054 v -14.724 c 0,-5.77 -4.679,-10.448 -10.448,-10.448 -7.143,0 -12.954,-5.812 -12.954,-12.954 0,-7.142 5.812,-12.954 12.954,-12.954 5.769,0 10.448,-4.678 10.448,-10.448 v -8.986 h 167.167 v 8.986 c 0,5.77 4.679,10.448 10.448,10.448 7.143,0 12.954,5.812 12.954,12.954 0,7.142 -5.812,12.954 -12.954,12.954 -5.769,0 -10.448,4.678 -10.448,10.448 v 14.727 c -0.793,0.049 -1.803,0.05 -3.239,0.05 -5.138,0 -10.948,-4.038 -17.676,-8.714 -9.492,-6.596 -21.305,-14.805 -37.15,-14.805 -6.248,0 -15.301,1.623 -25.489,8.537 -10.189,-6.914 -19.241,-8.537 -25.489,-8.537 -15.844,0 -27.658,8.209 -37.15,14.805 -6.726,4.677 -12.536,8.715 -17.675,8.715 z m 15.232,31.294 -4.288,-2.451 c -3.084,-2.089 -5.762,-4.851 -7.95,-8.098 10.271,-0.962 18.567,-6.712 26.606,-12.299 8.191,-5.692 15.927,-11.069 25.224,-11.069 3.282,0 10.054,1.128 18.541,8.685 3.961,3.527 9.936,3.527 13.897,0 8.487,-7.557 15.259,-8.685 18.541,-8.685 9.297,0 17.033,5.376 25.224,11.069 7.986,5.55 16.223,11.265 26.401,12.284 -2.216,3.259 -4.912,6.04 -7.979,8.118 l -5.257,3.014 c -4.211,1.894 -8.797,3.061 -13.666,3.061 -20.092,0 -33.09,-4.912 -42.139,-15.927 -1.984,-2.416 -4.946,-3.816 -8.073,-3.816 -3.127,0 -6.088,1.4 -8.073,3.816 -9.049,11.014 -22.046,15.927 -42.139,15.927 -5.336,0 -10.334,-1.401 -14.87,-3.629 z m 32.755,53.276 c 0.413,-1.893 0.634,-3.849 0.634,-5.845 v -4.274 l 7.939,4.539 c 7.333,4.763 15.529,7.144 23.725,7.144 8.198,0 16.396,-2.383 23.731,-7.148 l 7.931,-4.547 v 4.288 c 0,2.023 0.226,4.006 0.649,5.923 l -32.212,10.498 z m 21.849,37.013 c -0.831,6.264 -2.839,13.044 -7.175,17.38 -5.531,5.531 -14.966,7.291 -22.338,7.623 0.332,-7.38 2.092,-16.811 7.621,-22.339 5.347,-5.346 14.334,-7.164 21.588,-7.58 0.047,1.545 0.144,3.192 0.304,4.916 z m -16.049,-68.248 c 10.397,-2.431 19.147,-6.672 26.528,-12.875 7.364,6.188 16.092,10.424 26.457,12.858 l -13.417,7.694 c -0.19,0.11 -0.377,0.225 -0.56,0.346 -7.834,5.173 -17.184,5.173 -25.018,0 -0.187,-0.123 -0.377,-0.241 -0.573,-0.352 z m 37.432,63.337 c 7.22,0.425 16.252,2.24 21.586,7.575 5.531,5.53 7.291,14.964 7.624,22.335 -7.333,-0.343 -16.82,-2.099 -22.34,-7.619 -4.337,-4.337 -6.349,-11.074 -7.179,-17.335 0.164,-1.739 0.261,-3.399 0.309,-4.956 z m -143.662,43.015 c 0,-11.776 7.321,-23.707 17.029,-27.753 l 67.241,-28.017 c 1.113,-0.464 2.174,-1.006 3.197,-1.599 l 5.042,1.646 c -2.431,1.545 -4.755,3.364 -6.898,5.506 -17.014,17.016 -13.718,45.423 -13.287,48.606 0.631,4.656 4.293,8.317 8.949,8.949 0.98,0.133 4.345,0.537 9.035,0.537 10.551,0 27.792,-2.046 39.57,-13.825 1.056,-1.056 2.033,-2.156 2.938,-3.291 0.905,1.135 1.882,2.235 2.938,3.291 11.78,11.78 29.019,13.825 39.57,13.825 4.688,0 8.057,-0.404 9.035,-0.537 4.656,-0.631 8.318,-4.293 8.949,-8.949 0.431,-3.183 3.728,-31.591 -13.288,-48.607 -2.135,-2.134 -4.449,-3.949 -6.871,-5.49 l 4.93,-1.607 c 0.994,0.569 2.023,1.095 3.101,1.544 l 67.241,28.016 c 9.707,4.044 17.028,15.976 17.028,27.753 v 70.644 H 123.247 Z m 367.857,25.533 h -81.506 v -25.533 c 0,-16.635 -8.203,-32.585 -20.797,-41.867 v -87.132 h 102.303 z"
     id="path21" /><path
     d="m 354.274,456.077 h -39.199 c -5.769,0 -10.448,4.678 -10.448,10.448 0,5.77 4.679,10.448 10.448,10.448 h 39.199 c 5.769,0 10.448,-4.678 10.448,-10.448 0,-5.77 -4.679,-10.448 -10.448,-10.448 z"
     id="path22" /></g>
</svg>
