<?xml version="1.0" encoding="UTF-8" standalone="no"?>
<!-- Uploaded to: SVG Repo, www.svgrepo.com, Generator: SVG Repo Mixer Tools -->

<svg
   width="512"
   height="512"
   viewBox="0 0 32 32"
   data-name="Layer 1"
   id="Layer_1"
   version="1.1"
   sodipodi:docname="MyBalance.svg"
   inkscape:version="1.4 (86a8ad7, 2024-10-11)"
   inkscape:export-filename="MyBalance.png"
   inkscape:export-xdpi="96"
   inkscape:export-ydpi="96"
   xmlns:inkscape="http://www.inkscape.org/namespaces/inkscape"
   xmlns:sodipodi="http://sodipodi.sourceforge.net/DTD/sodipodi-0.dtd"
   xmlns="http://www.w3.org/2000/svg"
   xmlns:svg="http://www.w3.org/2000/svg">
  <sodipodi:namedview
     id="namedview10"
     pagecolor="#ffffff"
     bordercolor="#000000"
     borderopacity="0.25"
     inkscape:showpageshadow="2"
     inkscape:pageopacity="0.0"
     inkscape:pagecheckerboard="0"
     inkscape:deskcolor="#d1d1d1"
     inkscape:zoom="0.5"
     inkscape:cx="-103"
     inkscape:cy="443"
     inkscape:window-width="1920"
     inkscape:window-height="991"
     inkscape:window-x="-9"
     inkscape:window-y="-9"
     inkscape:window-maximized="1"
     inkscape:current-layer="Layer_1" />
  <defs
     id="defs1">
    <style
       id="style1">.cls-1{fill:#231f20;}.cls-2{fill:#ff8e5a;}.cls-3{fill:#ffffff;}.cls-4{fill:#d12200;}.cls-5{fill:#00a1d3;}.cls-6{fill:#7cc05b;}</style>
  </defs>
  <title
     id="title1" />
  <rect
     style="fill:#3aaa64;fill-opacity:1;stroke-width:0.125473"
     id="rect1-9"
     width="31.999998"
     height="31.999998"
     x="9.5367432e-07"
     y="9.5367432e-07" />
  <g
     id="g10"
     transform="matrix(0.54878049,0,0,0.54878049,2.2804878,2.2804876)">
    <path
       class="cls-1"
       d="M 44.067,4.5 H 5.933 A 1.435,1.435 0 0 0 4.5,5.933 v 1.943 a 1.435,1.435 0 0 0 1.433,1.433 h 1.446 v 26.219 a 2.5,2.5 0 0 0 1.494,2.285 l -1.41,4.936 A 2.157,2.157 0 0 0 9.538,45.5 h 0.176 a 2.169,2.169 0 0 0 2.075,-1.564 l 1.687,-5.908 h 23.048 l 1.687,5.908 a 2.169,2.169 0 0 0 2.075,1.564 h 0.176 a 2.157,2.157 0 0 0 2.075,-2.751 l -1.41,-4.936 a 2.5,2.5 0 0 0 1.494,-2.285 V 9.309 h 1.446 A 1.435,1.435 0 0 0 45.5,7.876 V 5.933 A 1.435,1.435 0 0 0 44.067,4.5 Z"
       id="path1" />
    <path
       class="cls-2"
       d="M 10.827,43.66 A 1.163,1.163 0 0 1 9.714,44.5 H 9.538 A 1.157,1.157 0 0 1 8.425,43.024 l 1.428,-5 h 0.026 2.557 z"
       id="path2" />
    <path
       class="cls-2"
       d="M 41.575,43.024 A 1.157,1.157 0 0 1 40.462,44.5 h -0.176 a 1.163,1.163 0 0 1 -1.113,-0.84 l -1.609,-5.632 h 2.557 0.026 z"
       id="path3" />
    <path
       class="cls-3"
       d="m 41.621,35.528 a 1.5,1.5 0 0 1 -1.5,1.5 H 9.879 a 1.5,1.5 0 0 1 -1.5,-1.5 V 9.309 h 33.242 z"
       id="path4" />
    <rect
       class="cls-2"
       height="2.809"
       rx="0.433"
       width="39"
       x="5.5"
       y="5.5"
       id="rect4" />
    <path
       class="cls-1"
       d="M 25.344,26.563 H 39.1 a 0.5,0.5 0 0 0 0,-1 H 37.825 V 15.287 a 0.5,0.5 0 1 0 -1,0 v 10.276 h -2.4 V 17.35 a 0.5,0.5 0 0 0 -1,0 v 8.213 h -2.4 v -5.881 a 0.5,0.5 0 1 0 -1,0 v 5.881 h -2.4 v -3.474 a 0.5,0.5 0 0 0 -1,0 v 3.474 h -1.281 a 0.5,0.5 0 0 0 0,1 z"
       id="path5" />
    <circle
       class="cls-1"
       cx="16.745001"
       cy="20.139999"
       r="6.3470001"
       id="circle5" />
    <path
       class="cls-4"
       d="m 22.042,19.64 h -4.8 v -4.8 a 5.319,5.319 0 0 1 4.8,4.8 z"
       id="path6" />
    <path
       class="cls-5"
       d="m 16.245,14.844 v 4.332 L 12.7,16.681 a 5.3,5.3 0 0 1 3.545,-1.837 z"
       id="path7" />
    <path
       class="cls-6"
       d="m 12.125,17.5 4.332,3.052 c 0.009,0.006 0.021,0 0.031,0.01 a 0.488,0.488 0 0 0 0.256,0.081 h 5.3 A 5.333,5.333 0 0 1 11.4,20.143 5.281,5.281 0 0 1 12.125,17.5 Z"
       id="path8" />
    <path
       class="cls-1"
       d="M 39.1,28.965 H 19.182 a 0.5,0.5 0 0 0 0,1 H 39.1 a 0.5,0.5 0 0 0 0,-1 z"
       id="path9" />
    <path
       class="cls-1"
       d="M 39.1,31.889 H 19.182 a 0.5,0.5 0 0 0 0,1 H 39.1 a 0.5,0.5 0 0 0 0,-1 z"
       id="path10" />
  </g>
</svg>
