<?xml version="1.0" encoding="UTF-8" standalone="no"?>
<!-- Uploaded to: SVG Repo, www.svgrepo.com, Generator: SVG Repo Mixer Tools -->

<svg
   height="512"
   width="512"
   version="1.1"
   id="Layer_1"
   viewBox="0 0 327.68064 327.68064"
   xml:space="preserve"
   sodipodi:docname="QuickOrder.svg"
   inkscape:version="1.4 (86a8ad7, 2024-10-11)"
   inkscape:export-filename="QuickOrder.png"
   inkscape:export-xdpi="96"
   inkscape:export-ydpi="96"
   xmlns:inkscape="http://www.inkscape.org/namespaces/inkscape"
   xmlns:sodipodi="http://sodipodi.sourceforge.net/DTD/sodipodi-0.dtd"
   xmlns="http://www.w3.org/2000/svg"
   xmlns:svg="http://www.w3.org/2000/svg"><defs
   id="defs14" /><sodipodi:namedview
   id="namedview14"
   pagecolor="#ffffff"
   bordercolor="#000000"
   borderopacity="0.25"
   inkscape:showpageshadow="2"
   inkscape:pageopacity="0.0"
   inkscape:pagecheckerboard="0"
   inkscape:deskcolor="#d1d1d1"
   inkscape:zoom="0.483125"
   inkscape:cx="268.04657"
   inkscape:cy="255.62743"
   inkscape:window-width="1920"
   inkscape:window-height="991"
   inkscape:window-x="-9"
   inkscape:window-y="-9"
   inkscape:window-maximized="1"
   inkscape:current-layer="Layer_1" />














<rect
   style="fill:#3aaa64;fill-opacity:1;stroke:none;stroke-width:0.840964"
   id="rect1"
   width="326.83966"
   height="326.83969"
   x="0.42048967"
   y="0.42047441" /><g
   id="g14"
   transform="matrix(0.45000043,0,0,0.45000043,48.63976,48.639875)"><g
     id="g2">
	<path
   style="fill:#b2b2b2"
   d="m 428.409,251.254 c -10.14,5.854 -23.544,1.621 -29.94,-9.456 L 282.671,41.228 c -6.395,-11.077 -3.36,-24.802 6.78,-30.657 10.14,-5.855 23.544,-1.621 29.94,9.456 l 115.798,200.568 c 6.395,11.078 3.36,24.804 -6.78,30.659 z"
   id="path1" />
	<path
   style="fill:#b2b2b2"
   d="m 83.593,251.254 c 10.14,5.854 23.544,1.621 29.94,-9.456 L 229.331,41.228 c 6.395,-11.077 3.36,-24.802 -6.78,-30.657 -10.14,-5.855 -23.544,-1.621 -29.94,9.456 L 76.813,220.596 c -6.395,11.077 -3.36,24.803 6.78,30.658 z"
   id="path2" />
</g><g
     id="g4">
	<path
   style="fill:#808080"
   d="m 415.242,186.046 h -48.96 l 32.187,55.751 c 6.395,11.077 19.8,15.311 29.94,9.456 10.14,-5.854 13.176,-19.58 6.78,-30.657 z"
   id="path3" />
	<path
   style="fill:#808080"
   d="m 76.813,220.596 c -6.395,11.077 -3.36,24.802 6.78,30.657 10.14,5.854 23.544,1.621 29.94,-9.456 L 145.72,186.046 H 96.76 Z"
   id="path4" />
</g><path
     style="fill:#ffd42a"
     d="m 455.284,270.847 -52.227,220.961 c -1.696,7.175 -8.102,12.243 -15.474,12.243 H 256.002 124.418 c -7.372,0 -13.778,-5.068 -15.474,-12.243 L 56.717,270.847 Z M 271.901,454.23 v -82.681 c 0,-8.781 -7.119,-15.9 -15.9,-15.9 -8.781,0 -15.9,7.119 -15.9,15.9 v 82.681 c 0,8.781 7.119,15.9 15.9,15.9 8.781,0 15.9,-7.119 15.9,-15.9 z m -71.021,0 v -82.681 c 0,-8.781 -7.119,-15.9 -15.9,-15.9 -8.781,0 -15.9,7.119 -15.9,15.9 v 82.681 c 0,8.781 7.119,15.9 15.9,15.9 8.78,0 15.9,-7.119 15.9,-15.9 z m 126.142,15.9 c 8.781,0 15.9,-7.119 15.9,-15.9 v -82.681 c 0,-8.781 -7.119,-15.9 -15.9,-15.9 -8.781,0 -15.9,7.119 -15.9,15.9 v 82.681 c -0.001,8.781 7.118,15.9 15.9,15.9 z"
     id="path5" /><polygon
     style="fill:#d4aa00"
     points="443.133,322.258 455.284,270.847 56.717,270.847 68.869,322.258 "
     id="polygon5" /><path
     style="fill:#4f5aa8"
     d="m 35.517,276.147 v -44.521 c 0,-8.781 7.119,-15.9 15.9,-15.9 h -25.44 c -8.781,0 -15.9,7.119 -15.9,15.9 v 44.521 c 0,8.781 7.119,15.9 15.9,15.9 h 25.44 c -8.781,0 -15.9,-7.119 -15.9,-15.9 z"
     id="path7" /><path
     d="m 161.129,371.549 v 82.681 c 0,13.152 10.699,23.85 23.85,23.85 13.152,0 23.85,-10.699 23.85,-23.85 v -82.681 c 0,-13.152 -10.699,-23.85 -23.85,-23.85 -13.151,-0.001 -23.85,10.698 -23.85,23.85 z m 31.8,0 v 82.681 c 0,4.384 -3.567,7.95 -7.95,7.95 -4.384,0 -7.95,-3.566 -7.95,-7.95 v -82.681 c 0,-4.384 3.566,-7.95 7.95,-7.95 4.384,0 7.95,3.565 7.95,7.95 z"
     id="path10" /><path
     d="m 303.171,371.549 v 82.681 c 0,13.152 10.699,23.85 23.85,23.85 13.152,0 23.85,-10.699 23.85,-23.85 v -82.681 c 0,-13.152 -10.699,-23.85 -23.85,-23.85 -13.151,-0.001 -23.85,10.698 -23.85,23.85 z m 31.801,0 v 82.681 c 0,4.384 -3.567,7.95 -7.95,7.95 -4.384,0 -7.95,-3.566 -7.95,-7.95 v -82.681 c 0,-4.384 3.566,-7.95 7.95,-7.95 4.384,0 7.95,3.565 7.95,7.95 z"
     id="path11" /><path
     d="m 232.15,371.549 v 82.681 c 0,13.152 10.699,23.85 23.85,23.85 13.152,0 23.85,-10.699 23.85,-23.85 v -82.681 c 0,-13.152 -10.699,-23.85 -23.85,-23.85 -13.151,-0.001 -23.85,10.698 -23.85,23.85 z m 31.801,0 v 82.681 c 0,4.384 -3.567,7.95 -7.95,7.95 -4.384,0 -7.95,-3.566 -7.95,-7.95 v -82.681 c 0,-4.384 3.566,-7.95 7.95,-7.95 4.384,0 7.95,3.565 7.95,7.95 z"
     id="path12" /><path
     d="M 486.024,207.776 H 436.95 c -0.047,-0.088 -0.086,-0.178 -0.136,-0.265 L 326.275,16.053 c -8.577,-14.856 -26.879,-20.404 -40.8,-12.367 -6.859,3.96 -11.61,10.544 -13.378,18.539 -1.711,7.735 -0.401,15.896 3.689,22.979 l 93.861,162.573 H 142.353 L 236.214,45.204 c 4.09,-7.083 5.4,-15.243 3.689,-22.979 -1.768,-7.995 -6.519,-14.578 -13.378,-18.539 -13.92,-8.037 -32.223,-2.49 -40.8,12.367 l -37.097,64.255 c -2.195,3.802 -0.893,8.665 2.91,10.86 3.802,2.195 8.665,0.891 10.86,-2.91 l 37.098,-64.255 c 4.193,-7.263 12.75,-10.201 19.08,-6.547 2.949,1.702 5.011,4.615 5.804,8.201 0.85,3.845 0.164,7.963 -1.933,11.596 L 123.996,207.776 H 93.395 l 45.747,-79.236 c 2.195,-3.802 0.893,-8.665 -2.91,-10.86 -3.802,-2.196 -8.665,-0.893 -10.86,2.91 L 75.035,207.776 H 25.978 c -13.152,0 -23.85,10.699 -23.85,23.85 v 44.521 c 0,13.152 10.699,23.85 23.85,23.85 H 55.44 l 45.769,193.64 c 2.556,10.812 12.101,18.364 23.21,18.364 h 263.165 c 11.11,0 20.654,-7.552 23.21,-18.365 l 22.662,-95.88 c 1.01,-4.273 -1.635,-8.555 -5.909,-9.566 -4.275,-1.012 -8.555,1.635 -9.566,5.909 l -22.662,95.879 c -0.852,3.604 -4.033,6.122 -7.737,6.122 H 124.418 c -3.704,0 -6.885,-2.518 -7.737,-6.122 L 71.777,299.997 h 368.446 l -12.22,51.703 c -1.01,4.273 1.635,8.555 5.909,9.566 0.615,0.145 1.23,0.215 1.835,0.215 3.602,0 6.866,-2.465 7.73,-6.123 l 13.085,-55.359 h 29.462 c 13.152,0 23.85,-10.699 23.85,-23.85 v -44.521 c 10e-4,-13.153 -10.698,-23.852 -23.85,-23.852 z m -98.17,-0.265 -98.298,-170.258 c -2.098,-3.633 -2.784,-7.751 -1.934,-11.596 0.793,-3.586 2.854,-6.499 5.804,-8.201 6.327,-3.652 14.887,-0.717 19.08,6.547 l 106.101,183.773 h -30.618 c -0.046,-0.088 -0.084,-0.178 -0.135,-0.265 z M 25.977,284.097 c -4.384,0 -7.95,-3.566 -7.95,-7.95 v -44.521 c 0,-4.384 3.566,-7.95 7.95,-7.95 z m 467.997,-7.95 c 0,4.384 -3.566,7.95 -7.95,7.95 0,0 -57.92917,-53.35642 0,-60.421 4.384,0 7.95,3.566 7.95,7.95 z"
     id="path13"
     sodipodi:nodetypes="scccccccccccccccccccccccccssssccsscccccsscccccsccsscsccccccccssssssssss" /><path
     style="fill:#5555ff;stroke-width:0.923653"
     d="M 479.69619,287.36344 H 32.304841 c -8.539439,0 -15.462599,-6.24526 -15.462599,-13.94854 v -39.0568 c 0,-7.70328 6.92316,-13.94854 15.462599,-13.94854 H 479.69716 c 8.53943,0 15.4626,6.24526 15.4626,13.94854 v 39.0568 c -9.7e-4,7.70328 -6.92317,13.94854 -15.46357,13.94854 z"
     id="path6" /></g></svg>
