<?xml version="1.0" encoding="UTF-8" standalone="no"?>
<!-- Uploaded to: SVG Repo, www.svgrepo.com, Generator: SVG Repo Mixer Tools -->

<svg
   width="512"
   height="512"
   viewBox="0 0 40.96 40.96"
   version="1.1"
   id="svg8"
   sodipodi:docname="RoutePlan.svg"
   inkscape:version="1.4 (86a8ad7, 2024-10-11)"
   inkscape:export-filename="RoutePlan.png"
   inkscape:export-xdpi="96"
   inkscape:export-ydpi="96"
   xmlns:inkscape="http://www.inkscape.org/namespaces/inkscape"
   xmlns:sodipodi="http://sodipodi.sourceforge.net/DTD/sodipodi-0.dtd"
   xmlns="http://www.w3.org/2000/svg"
   xmlns:svg="http://www.w3.org/2000/svg"
   xmlns:rdf="http://www.w3.org/1999/02/22-rdf-syntax-ns#"
   xmlns:cc="http://creativecommons.org/ns#"
   xmlns:dc="http://purl.org/dc/elements/1.1/">
  <defs
     id="defs8" />
  <sodipodi:namedview
     id="namedview8"
     pagecolor="#ffffff"
     bordercolor="#000000"
     borderopacity="0.25"
     inkscape:showpageshadow="2"
     inkscape:pageopacity="0.0"
     inkscape:pagecheckerboard="0"
     inkscape:deskcolor="#d1d1d1"
     inkscape:zoom="0.96625"
     inkscape:cx="235.44631"
     inkscape:cy="234.41138"
     inkscape:window-width="1920"
     inkscape:window-height="991"
     inkscape:window-x="-9"
     inkscape:window-y="-9"
     inkscape:window-maximized="1"
     inkscape:current-layer="svg8" />
  <title
     id="title1">travel</title>
  <rect
     style="fill:#3aaa64;fill-opacity:1;stroke-width:0.160605"
     id="rect1-9"
     width="40.959999"
     height="40.959999"
     x="4.5776366e-07"
     y="4.5776369e-07" />
  <circle
     style="fill:#ffffff;stroke-width:0.08"
     id="path9"
     cx="13.026133"
     cy="11.503978"
     r="1.9026935" />
  <circle
     cx="17.171921"
     cy="22.527071"
     r="10.619925"
     style="fill:#ffded5;stroke-width:0.471997"
     id="circle1" />
  <circle
     cx="7.7319884"
     cy="25.831047"
     r="1.1799916"
     style="fill:none;stroke:#000000;stroke-width:0.943993px;stroke-linecap:round;stroke-linejoin:round;stroke-opacity:1"
     id="circle2" />
  <path
     d="M 10.340714,17.571106 9.8337893,17.824569 A 0.83968204,0.83968204 0 0 0 9.456192,18.951225 l 2.563886,5.127771 a 0.83921004,0.83921004 0 0 1 0.08024,0.494181 l -0.131687,0.921337 a 0.84015404,0.84015404 0 0 0 0.831658,0.958625 v 0 A 0.83921004,0.83921004 0 0 0 13.26615,26.31154 l 1.410798,-0.940689 a 0.84251402,0.84251402 0 0 1 0.465861,-0.141599 h 0.74009 a 0.84015404,0.84015404 0 0 0 0.839682,-0.840154 v -0.154343 a 0.84015404,0.84015404 0 0 1 0.839682,-0.839682 h 4.314522 a 0.83826605,0.83826605 0 0 1 0.593772,0.24591 l 1.592516,1.590157 v 0.613596 h 1.179992 a 0.84062603,0.84062603 0 0 1 0.815138,0.636251 l 0.29311,1.784147 a 0.84015404,0.84015404 0 0 0 0.810418,0.633892 h 1.270615 a 0.84062603,0.84062603 0 0 0 0.751419,-0.464445 l 0.146791,-0.294054 a 0.84015404,0.84015404 0 0 1 0.751419,-0.463972 h 0.82741 c 0.301606,0 0.579612,-0.773131 0.729235,-1.034617 l 2.135784,-3.738214 a 0.83024211,0.83024211 0 0 0 0.0944,-0.252046 l 0.522972,-2.614389 a 0.84109803,0.84109803 0 0 0 -0.0944,-0.5815 l -2.130121,-3.72547 a 0.83873805,0.83873805 0 0 0 -0.463501,-0.377597 l -1.019985,-0.339838 a 0.83968204,0.83968204 0 0 1 -0.568756,-0.704219 l -0.195878,-1.762907 a 0.84015404,0.84015404 0 0 0 -0.459253,-0.658435 l -0.34975,-0.174639 A 0.84062603,0.84062603 0 0 1 28.645688,10.961265 V 9.6415626 h -0.611236 l -1.433926,2.3897194 a 0.83968204,0.83968204 0 0 1 -1.095976,0.319069 l -1.097864,-0.548932 a 0.84015404,0.84015404 0 0 1 -0.421493,-1.016681 l 0.01274,-0.03776 A 0.84015404,0.84015404 0 0 0 23.201206,9.6415626 h -1.982385 a 0.84062603,0.84062603 0 0 0 -0.751419,0.4644444 l -0.689115,1.378231 a 0.84015404,0.84015404 0 0 1 -0.954378,0.439428 l -1.237103,-0.309157 a 0.83968204,0.83968204 0 0 0 -0.887353,0.326621 l -2.60495,3.644286 a 0.83685006,0.83685006 0 0 1 -0.307742,0.262903 l -1.374926,0.687699"
     style="fill:#ffce56;stroke:#000000;stroke-width:0.943993px;stroke-linecap:round;stroke-linejoin:round;stroke-opacity:1"
     id="path2" />
  <circle
     cx="14.925217"
     cy="29.836884"
     r="0.5045644"
     style="fill:#000000;stroke-width:0.471997;fill-opacity:1"
     id="circle3" />
  <line
     x1="20.239899"
     y1="28.899025"
     x2="20.239899"
     y2="29.843019"
     style="fill:none;stroke:#000000;stroke-width:0.943993px;stroke-linecap:round;stroke-linejoin:round;stroke-opacity:1"
     id="line3" />
  <line
     x1="20.239899"
     y1="31.731007"
     x2="20.239899"
     y2="32.674999"
     style="fill:none;stroke:#000000;stroke-width:0.943993px;stroke-linecap:round;stroke-linejoin:round;stroke-opacity:1"
     id="line4" />
  <line
     x1="18.351913"
     y1="30.787012"
     x2="19.295906"
     y2="30.787012"
     style="fill:none;stroke:#000000;stroke-width:0.943993px;stroke-linecap:round;stroke-linejoin:round;stroke-opacity:1"
     id="line5" />
  <line
     x1="21.183893"
     y1="30.787012"
     x2="22.127886"
     y2="30.787012"
     style="fill:none;stroke:#000000;stroke-width:0.943993px;stroke-linecap:round;stroke-linejoin:round;stroke-opacity:1"
     id="line6" />
  <path
     d="m 26.895052,30.787012 h 1.793587 a 0.31954173,0.31954173 0 0 1 0.28603,0.462557 l -0.710826,1.897427 -1.656709,-1.897427 a 0.31954173,0.31954173 0 0 1 0.287918,-0.462557 z"
     style="fill:#ffce56;stroke:#000000;stroke-width:0.943993px;stroke-linecap:round;stroke-linejoin:round;stroke-opacity:1"
     id="path6" />
  <path
     d="M 13.056582,7.8130476 A 3.7023417,3.7023417 0 0 0 9.4000244,11.558813 c 0,2.068761 3.6565576,6.956287 3.6565576,6.956287 0,0 3.656558,-4.887526 3.656558,-6.956287 A 3.7018697,3.7018697 0 0 0 13.056582,7.8130476 Z m 0,5.6417764 a 1.8964825,1.8964825 0 1 1 1.849755,-1.896011 1.8738267,1.8738267 0 0 1 -1.849755,1.896011 z"
     style="fill:#f96e43;stroke:#000000;stroke-width:0.943993px;stroke-linecap:round;stroke-linejoin:round;stroke-opacity:1"
     id="path7" />
  <circle
     style="fill:#ffffff;stroke-width:0.08"
     id="path9-9"
     cx="28.023884"
     cy="19.603289"
     r="1.9026935" />
  <path
     d="m 28.160475,15.836991 a 3.7023417,3.7023417 0 0 0 -3.656558,3.745765 c 0,2.068761 3.656558,6.956287 3.656558,6.956287 0,0 3.656558,-4.887526 3.656558,-6.956287 a 3.7018697,3.7018697 0 0 0 -3.656558,-3.745765 z m 0,5.641776 a 1.8964825,1.8964825 0 1 1 1.849755,-1.896011 1.8738267,1.8738267 0 0 1 -1.849755,1.896011 z"
     style="fill:#a9ba5a;stroke:#000000;stroke-width:0.943993px;stroke-linecap:round;stroke-linejoin:round;stroke-opacity:1"
     id="path8" />
  <metadata
     id="metadata8">
    <rdf:RDF>
      <cc:Work
         rdf:about="">
        <dc:title>travel</dc:title>
      </cc:Work>
    </rdf:RDF>
  </metadata>
</svg>
