<?xml version="1.0" encoding="UTF-8" standalone="no"?>
<!-- Uploaded to: SVG Repo, www.svgrepo.com, Generator: SVG Repo Mixer Tools -->

<svg
   version="1.1"
   id="Layer_1"
   viewBox="0 0 512 512"
   xml:space="preserve"
   sodipodi:docname="StockGuard.svg"
   inkscape:version="1.4 (86a8ad7, 2024-10-11)"
   inkscape:export-filename="StockGuard.png"
   inkscape:export-xdpi="96"
   inkscape:export-ydpi="96"
   xmlns:inkscape="http://www.inkscape.org/namespaces/inkscape"
   xmlns:sodipodi="http://sodipodi.sourceforge.net/DTD/sodipodi-0.dtd"
   xmlns="http://www.w3.org/2000/svg"
   xmlns:svg="http://www.w3.org/2000/svg"><defs
   id="defs26" /><sodipodi:namedview
   id="namedview26"
   pagecolor="#ffffff"
   bordercolor="#000000"
   borderopacity="0.25"
   inkscape:showpageshadow="2"
   inkscape:pageopacity="0.0"
   inkscape:pagecheckerboard="0"
   inkscape:deskcolor="#d1d1d1"
   inkscape:zoom="0.37744141"
   inkscape:cx="282.163"
   inkscape:cy="510.01294"
   inkscape:window-width="1920"
   inkscape:window-height="991"
   inkscape:window-x="-9"
   inkscape:window-y="-9"
   inkscape:window-maximized="1"
   inkscape:current-layer="Layer_1" />





























<rect
   style="fill:#3aaa64;fill-opacity:1;stroke-width:2.00756"
   id="rect1-9"
   width="512"
   height="512"
   x="0"
   y="0" /><g
   id="g26"
   transform="matrix(0.75346121,0,0,0.75346121,63.114307,63.11393)"><polygon
     style="fill:#ebebec"
     points="289.314,503.449 367.699,425.064 367.699,67.34 25.653,67.34 25.653,503.449 "
     id="polygon1" /><g
     id="g2">
	<rect
   x="25.653"
   y="67.339996"
   style="fill:#d7d8d9"
   width="25.653"
   height="436.10901"
   id="rect1" />
	<polygon
   style="fill:#d7d8d9"
   points="289.67,503.449 367.699,425.42 289.67,425.42 "
   id="polygon2" />
</g><rect
     x="102.614"
     y="135.74899"
     style="fill:#fddd85"
     width="188.125"
     height="128.267"
     id="rect2" /><rect
     x="102.614"
     y="135.74899"
     style="fill:#fdd042"
     width="76.959999"
     height="128.267"
     id="rect3" /><rect
     x="128.267"
     y="135.74899"
     style="fill:#e1a527"
     width="25.653"
     height="51.306999"
     id="rect4" /><path
     style="fill:#e5563c"
     d="M 245.052,41.687 C 238.007,21.762 219.014,7.482 196.676,7.482 c -22.338,0 -41.33,14.28 -48.376,34.205 h -28.584 v 59.858 H 273.637 V 41.687 Z M 196.676,67.34 c -9.446,0 -17.102,-7.656 -17.102,-17.102 0,-9.446 7.656,-17.102 17.102,-17.102 9.446,0 17.102,7.656 17.102,17.102 0,9.446 -7.656,17.102 -17.102,17.102 z"
     id="path4" /><polygon
     style="fill:#cf442b"
     points="119.716,101.545 273.637,101.545 273.637,84.443 136.818,84.443 136.818,41.687 119.716,41.687 "
     id="polygon4" /><path
     style="fill:#9b9da1"
     d="m 419.006,503.449 h 17.102 c 9.446,0 17.102,-7.656 17.102,-17.102 V 161.403 h -51.307 v 324.944 c 10e-4,9.445 7.657,17.102 17.103,17.102 z"
     id="path5" /><path
     style="fill:#e5563c"
     d="m 419.006,503.449 h 17.102 c 9.446,0 17.102,-7.656 17.102,-17.102 V 366.63 h -51.307 v 119.716 c 10e-4,9.446 7.657,17.103 17.103,17.103 z"
     id="path6" /><path
     style="fill:#88898e"
     d="M 419.006,486.347 V 161.403 h -17.102 v 324.944 c 0,9.446 7.656,17.102 17.102,17.102 h 17.102 c -9.445,0 -17.102,-7.657 -17.102,-17.102 z"
     id="path7" /><path
     style="fill:#cf442b"
     d="M 419.006,486.347 V 366.63 h -17.102 v 119.716 c 0,9.446 7.656,17.102 17.102,17.102 h 17.102 c -9.445,0.001 -17.102,-7.656 -17.102,-17.101 z"
     id="path8" /><polygon
     style="fill:#fdd042"
     points="401.904,161.403 453.211,161.403 427.557,92.994 "
     id="polygon8" /><path
     d="m 367.699,59.858 h -86.58 V 41.687 c 0,-4.427 -3.054,-7.482 -7.482,-7.482 H 250.423 C 240.754,12.827 219.828,0 196.676,0 173.524,0 152.598,12.827 142.93,34.205 h -23.214 c -4.428,0 -8.551,3.055 -8.551,7.482 V 59.858 H 25.653 c -4.428,0 -8.551,3.055 -8.551,7.482 v 436.109 c 0,4.427 4.123,8.551 8.551,8.551 h 263.661 c 2.101,0 4.183,-1.13 5.669,-2.616 l 78.118,-78.519 c 1.486,-1.486 2.08,-3.702 2.08,-5.802 V 221.261 c 0,-4.427 -3.588,-8.017 -8.017,-8.017 -4.428,0 -8.017,3.589 -8.017,8.017 v 195.608 h -69.834 c -4.428,0 -8.195,3.767 -8.195,8.195 v 70.903 H 33.136 V 75.891 h 78.029 v 25.653 c 0,4.427 4.123,8.551 8.551,8.551 h 153.921 c 4.428,0 7.482,-4.124 7.482,-8.551 V 75.891 h 78.029 v 111.165 c 0,4.427 3.588,8.017 8.017,8.017 4.428,0 8.017,-3.589 8.017,-8.017 V 67.34 c 0,-4.427 -3.054,-7.482 -7.483,-7.482 z m -19.353,373.044 -51.194,51.193 V 432.902 Z M 265.086,94.063 H 127.198 V 50.238 H 148.3 c 3.398,0 6.426,-2.408 7.558,-5.612 6.103,-17.262 22.507,-28.994 40.818,-28.994 18.311,0 34.714,11.798 40.818,29.061 1.133,3.203 4.161,5.545 7.558,5.545 h 20.033 v 43.825 z"
     id="path9" /><path
     d="M 299.29,324.944 H 196.676 c -4.428,0 -8.017,3.589 -8.017,8.017 0,4.427 3.588,8.017 8.017,8.017 H 299.29 c 4.428,0 8.017,-3.589 8.017,-8.017 0,-4.428 -3.588,-8.017 -8.017,-8.017 z"
     id="path10" /><path
     d="M 299.29,359.148 H 196.676 c -4.428,0 -8.017,3.589 -8.017,8.017 0,4.427 3.588,8.017 8.017,8.017 H 299.29 c 4.428,0 8.017,-3.589 8.017,-8.017 0,-4.427 -3.588,-8.017 -8.017,-8.017 z"
     id="path11" /><path
     d="M 299.29,393.353 H 196.676 c -4.428,0 -8.017,3.589 -8.017,8.017 0,4.427 3.588,8.017 8.017,8.017 H 299.29 c 4.428,0 8.017,-3.589 8.017,-8.017 0,-4.428 -3.588,-8.017 -8.017,-8.017 z"
     id="path12" /><path
     d="m 111.165,323.875 h 51.307 c 4.428,0 8.017,-3.589 8.017,-8.017 0,-4.427 -3.588,-8.017 -8.017,-8.017 H 135.75 v -9.62 c 0,-4.427 -3.588,-8.017 -8.017,-8.017 -4.428,0 -8.017,3.589 -8.017,8.017 v 9.62 h -8.551 c -13.851,0 -25.653,10.734 -25.653,24.585 v 17.102 c 0,13.851 11.803,25.653 25.653,25.653 h 34.205 c 5.01,0 8.551,3.541 8.551,8.551 v 17.102 c 0,5.01 -3.541,9.62 -8.551,9.62 H 94.063 c -4.428,0 -8.017,3.589 -8.017,8.017 0,4.427 3.588,8.017 8.017,8.017 h 25.653 v 8.551 c 0,4.427 3.588,8.017 8.017,8.017 4.428,0 8.017,-3.589 8.017,-8.017 v -8.551 h 9.62 c 13.851,0 24.585,-11.803 24.585,-25.653 v -17.102 c 0,-13.851 -10.734,-24.585 -24.585,-24.585 h -34.205 c -5.01,0 -9.62,-4.61 -9.62,-9.62 v -17.102 c 0,-5.01 4.61,-8.551 9.62,-8.551 z"
     id="path13" /><path
     d="m 298.221,136.284 c 0,-4.427 -3.589,-8.017 -8.017,-8.017 H 102.079 c -4.427,0 -8.017,3.589 -8.017,8.017 v 128.267 c 0,4.427 3.589,8.017 8.017,8.017 h 188.125 c 4.427,0 8.017,-3.589 8.017,-8.017 z m -16.033,120.25 H 187.056 V 144.301 h 95.132 z M 145.37,144.301 v 35.273 h -9.62 V 144.301 Z M 110.096,256.534 V 144.301 h 9.62 v 42.756 c 0,4.427 4.123,8.551 8.551,8.551 h 25.653 c 4.428,0 7.482,-4.124 7.482,-8.551 v -42.756 h 9.62 v 112.234 h -60.926 z"
     id="path14" /><path
     d="m 213.779,178.505 h 51.307 c 4.428,0 8.017,-3.589 8.017,-8.017 0,-4.428 -3.588,-8.017 -8.017,-8.017 h -51.307 c -4.428,0 -8.017,3.589 -8.017,8.017 0,4.428 3.588,8.017 8.017,8.017 z"
     id="path15" /><path
     d="m 221.175,218.193 c -1.235,-3.093 -4.478,-5.107 -7.791,-4.939 -3.494,0.177 -6.523,2.67 -7.379,6.057 -1.786,7.079 6.542,12.757 12.479,8.436 2.957,-2.151 4.114,-6.173 2.691,-9.554 z"
     id="path16" /><path
     d="m 246.829,218.193 c -1.211,-3.035 -4.344,-5.027 -7.594,-4.944 -3.269,0.083 -6.256,2.222 -7.349,5.31 -1.119,3.165 -0.128,6.763 2.463,8.895 2.688,2.214 6.634,2.406 9.529,0.476 3.135,-2.089 4.415,-6.256 2.951,-9.737 z"
     id="path17" /><path
     d="m 272.493,218.193 c -2.689,-6.391 -12.158,-6.499 -14.815,0 -1.323,3.237 -0.373,7.041 2.325,9.262 2.579,2.124 6.318,2.396 9.184,0.689 3.4,-2.023 4.763,-6.299 3.306,-9.951 z"
     id="path18" /><path
     d="m 132.714,214.591 c -3.027,-2.042 -7.218,-1.689 -9.887,0.786 -2.303,2.136 -3.161,5.516 -2.137,8.486 1.103,3.202 4.186,5.409 7.577,5.416 3.389,0.006 6.477,-2.222 7.577,-5.416 1.182,-3.429 -0.16,-7.238 -3.13,-9.272 z"
     id="path19" /><path
     d="m 161.328,218.193 c -2.7,-6.416 -12.123,-6.49 -14.815,0 -1.354,3.265 -0.339,7.179 2.442,9.362 2.587,2.031 6.24,2.268 9.064,0.589 3.404,-2.021 4.767,-6.298 3.309,-9.951 z"
     id="path20" /><path
     d="m 196.676,25.119 c -13.851,0 -25.119,11.268 -25.119,25.119 0,13.851 11.268,25.119 25.119,25.119 13.851,0 25.119,-11.268 25.119,-25.119 0,-13.851 -11.268,-25.119 -25.119,-25.119 z m 0,34.205 c -5.01,0 -9.086,-4.076 -9.086,-9.086 0,-5.01 4.076,-9.086 9.086,-9.086 5.01,0 9.086,4.076 9.086,9.086 0,5.01 -4.076,9.086 -9.086,9.086 z"
     id="path21" /><path
     d="m 486.881,341.511 c -4.428,0 -8.017,3.589 -8.017,8.017 v 102.614 c 0,5.01 -3.541,9.62 -8.551,9.62 h -8.551 c -0.181,0 0,-0.519 -1.069,-0.508 V 161.403 c 0,-0.949 -0.175,-1.926 -0.511,-2.814 L 435.04,91.54 v -24.2 c 0,-4.427 -3.588,-8.017 -8.017,-8.017 -4.429,0 -8.017,3.589 -8.017,8.017 v 24.2 l -25.143,67.048 c -0.335,0.889 -0.511,1.865 -0.511,2.814 v 324.944 c 0,13.851 11.803,25.653 25.653,25.653 h 17.102 c 13.851,0 24.585,-11.803 24.585,-25.653 v -9.112 c 1.069,0.012 0.888,0.561 1.069,0.561 h 8.551 c 13.851,0 24.585,-11.803 24.585,-25.653 V 349.528 c 0.001,-4.427 -3.588,-8.017 -8.016,-8.017 z M 444.66,359.148 H 409.387 V 169.954 h 35.273 z m -17.103,-242.788 14.086,37.561 h -28.171 z m 17.103,369.987 c 0,5.01 -3.541,9.62 -8.551,9.62 h -17.102 c -5.01,0 -9.62,-4.61 -9.62,-9.62 V 375.182 h 35.273 z"
     id="path22" /><path
     d="m 420.149,207.226 c 1.228,2.903 4.082,4.875 7.242,4.946 3.409,0.076 6.561,-2.108 7.707,-5.312 1.167,-3.261 0.051,-7 -2.707,-9.092 -2.582,-1.957 -6.173,-2.125 -8.95,-0.476 -3.396,2.017 -4.747,6.292 -3.292,9.934 z"
     id="path23" /><path
     d="m 427.557,237.829 c 3.391,0 6.476,-2.218 7.577,-5.416 1.115,-3.236 -0.021,-6.926 -2.745,-8.992 -5.892,-4.469 -14.436,1.173 -12.601,8.358 0.898,3.509 4.143,6.05 7.769,6.05 z"
     id="path24" /><path
     d="m 420.149,258.533 c 1.228,2.903 4.082,4.875 7.242,4.946 3.411,0.076 6.558,-2.109 7.707,-5.311 1.165,-3.246 0.06,-7.016 -2.707,-9.088 -2.6,-1.946 -6.157,-2.138 -8.95,-0.479 -3.396,2.015 -4.747,6.29 -3.292,9.932 z"
     id="path25" /><path
     d="m 427.023,331.891 c 4.428,0 8.017,-3.589 8.017,-8.017 v -42.756 c 0,-4.427 -3.588,-8.017 -8.017,-8.017 -4.429,0 -8.017,3.589 -8.017,8.017 v 42.756 c 0,4.428 3.589,8.017 8.017,8.017 z"
     id="path26" /></g>
</svg>
